g CornerCylinder_Mesh
v -2.413417 10 4.285308
v -3.535533 10 3.535535
v -4.285308 10 2.413418
v -2.413417 10 2.413418
v -4.285308 0 2.413418
v -3.535533 0 3.535535
v -2.413417 0 4.285308
v -2.413417 0 2.413418
v -3.535533 10 -3.535535
v -4.285308 10 -2.413418
v -4.285308 0 -2.413418
v -3.535532 0 -3.535535
v -3.535533 0 3.535535
v -4.285308 0 2.413418
v -4.285308 10 2.413418
v -3.535533 10 3.535535
v -2.413417 0 2.413418
v -2.413417 10 2.413418
v -4.285308 10 2.413418
v -4.285308 0 2.413418
v -2.413417 0 4.285308
v -3.535533 0 3.535535
v -3.535533 10 3.535535
v -2.413417 10 4.285308
v -2.413417 0 4.285308
v -2.413417 10 4.285308
v -2.413417 10 2.413418
v -2.413417 0 2.413418
v -1.913417 0 -4.619398
v -1.913417 10 -4.619398
v -3.535533 10 -3.535535
v -3.535532 0 -3.535535
v -3.535533 10 -3.535535
v -4.285308 10 -2.413418
v -4.285308 0 -2.413418
v -3.535532 0 -3.535535
v -3.535533 0 3.535535
v -4.285308 0 2.413418
v -4.285308 10 2.413418
v -3.535533 10 3.535535
v -2.413417 0 2.413418
v -2.413417 10 2.413418
v -4.285308 10 2.413418
v -4.285308 0 2.413418
v -2.413417 0 4.285308
v -3.535533 0 3.535535
v -3.535533 10 3.535535
v -2.413417 10 4.285308
v -2.413417 0 4.285308
v -2.413417 10 4.285308
v -2.413417 10 2.413418
v -2.413417 0 2.413418
v 2.413417 10 4.285308
v 2.413417 10 -2.413418
v -4.285308 10 -2.413418
v -3.535533 10 -3.535535
v -1.913417 10 -4.619398
v 1.913417 10 -4.619398
v 3.535533 10 -3.535535
v 4.619397 10 -1.913418
v 4.619397 10 1.913418
v 3.535533 10 3.535535
v -1.913417 0 -4.619398
v -1.913417 10 -4.619398
v -3.535533 10 -3.535535
v -3.535532 0 -3.535535
v 2.413417 10 4.285308
v 3.535533 10 3.535535
v 3.535532 0 3.535535
v 2.413417 0 4.285308
v 3.535533 10 3.535535
v 4.619397 10 1.913418
v 4.619397 0 1.913418
v 3.535532 0 3.535535
v 2.413417 10 4.285308
v 3.535533 10 3.535535
v 3.535532 0 3.535535
v 2.413417 0 4.285308
v -4.285308 0 -2.413418
v -4.285308 10 -2.413418
v 2.413417 10 -2.413418
v 2.413417 0 -2.413418
v 2.413417 0 -2.413418
v 2.413417 10 -2.413418
v 2.413417 10 4.285308
v 2.413417 0 4.285308
v -4.285308 0 -2.413418
v -4.285308 10 -2.413418
v 2.413417 10 -2.413418
v 2.413417 0 -2.413418
v 2.413417 0 -2.413418
v 2.413417 10 -2.413418
v 2.413417 10 4.285308
v 2.413417 0 4.285308
v 2.413417 0 4.285308
v 3.535532 0 3.535535
v 4.619397 0 1.913418
v 4.619397 0 -1.913418
v 3.535533 0 -3.535535
v 1.913417 0 -4.619398
v -1.913417 0 -4.619398
v -3.535532 0 -3.535535
v -4.285308 0 -2.413418
v 2.413417 0 -2.413418
v 3.535533 10 3.535535
v 4.619397 10 1.913418
v 4.619397 0 1.913418
v 3.535532 0 3.535535
v 4.619397 0 1.913418
v 4.619397 10 1.913418
v 4.619397 10 -1.913418
v 4.619397 0 -1.913418
v 1.913417 0 -4.619398
v 1.913417 10 -4.619398
v -1.913417 10 -4.619398
v -1.913417 0 -4.619398
v 3.535533 0 -3.535535
v 4.619397 0 -1.913418
v 4.619397 10 -1.913418
v 3.535533 10 -3.535535
v 3.535533 0 -3.535535
v 4.619397 0 -1.913418
v 4.619397 10 -1.913418
v 3.535533 10 -3.535535
v 3.535533 0 -3.535535
v 3.535533 10 -3.535535
v 1.913417 10 -4.619398
v 1.913417 0 -4.619398
vt 2.413417 -4.285308
vt 3.535533 -3.535535
vt 4.285308 -2.413418
vt 2.413417 -2.413418
vt -4.285308 2.413418
vt -3.535533 3.535535
vt -2.413417 4.285308
vt -2.413417 2.413418
vt 0.6706901 -5
vt -0.327531 -5
vt -0.3275309 -5.9998
vt 0.6706897 -5.9998
vt 0.3293106 -5.9998
vt 1.327531 -5.9998
vt 1.327531 -5
vt 0.3293107 -5
vt 2.561445 -5.9998
vt 2.561445 -5
vt 1.562512 -5
vt 1.562512 -5.9998
vt -5.619642 -5.9998
vt -4.621421 -5.9998
vt -4.621421 -5
vt -5.619642 -5
vt -4.137282 -5.9998
vt -4.137282 -5
vt -5.136215 -5
vt -5.136215 -5.9998
vt 2.046346 -5.9998
vt 2.046346 -5
vt 1.047578 -5
vt 1.047578 -5.9998
vt 0.6706901 -5
vt -0.327531 -5
vt -0.3275309 -5.9998
vt 0.6706897 -5.9998
vt 0.3293106 -5.9998
vt 1.327531 -5.9998
vt 1.327531 -5
vt 0.3293107 -5
vt 2.561445 -5.9998
vt 2.561445 -5
vt 1.562512 -5
vt 1.562512 -5.9998
vt -5.619642 -5.9998
vt -4.621421 -5.9998
vt -4.621421 -5
vt -5.619642 -5
vt -4.137282 -5.9998
vt -4.137282 -5
vt -5.136215 -5
vt -5.136215 -5.9998
vt 0.09949896 0.1859119
vt 0.09949896 0.9380111
vt 0.851598 0.9380111
vt 0.7674171 1.063997
vt 0.5852941 1.185687
vt 0.1556364 1.185687
vt -0.02648658 1.063997
vt -0.1481774 0.8818736
vt -0.1481774 0.4522157
vt -0.02648658 0.2700926
vt 2.046346 -5.9998
vt 2.046346 -5
vt 1.047578 -5
vt 1.047578 -5.9998
vt 6.619643 -5
vt 5.621422 -5
vt 5.621422 -5.9998
vt 6.619643 -5.9998
vt -3.402605 -5
vt -4.401373 -5
vt -4.401373 -5.9998
vt -3.402605 -5.9998
vt 6.619643 -5
vt 5.621422 -5
vt 5.621422 -5.9998
vt 6.619643 -5.9998
vt -0.07577294 -5.9998
vt -0.07577303 -5
vt -1.075475 -5
vt -1.075475 -5.9998
vt 1.796118 -5.9998
vt 1.796118 -5
vt 0.7964162 -5
vt 0.7964163 -5.9998
vt -0.07577294 -5.9998
vt -0.07577303 -5
vt -1.075475 -5
vt -1.075475 -5.9998
vt 1.796118 -5.9998
vt 1.796118 -5
vt 0.7964162 -5
vt 0.7964163 -5.9998
vt 2.413417 4.285308
vt 3.535532 3.535535
vt 4.619397 1.913418
vt 4.619397 -1.913418
vt 3.535533 -3.535535
vt 1.913417 -4.619398
vt -1.913417 -4.619398
vt -3.535532 -3.535535
vt -4.285308 -2.413418
vt 2.413417 -2.413418
vt -3.402605 -5
vt -4.401373 -5
vt -4.401373 -5.9998
vt -3.402605 -5.9998
vt 0.8826836 -4.997611
vt 0.8826836 -4.012389
vt 0.1173163 -4.012389
vt 0.1173164 -4.997611
vt 0.8826835 -4.997611
vt 0.8826834 -4.012389
vt 0.1173165 -4.012389
vt 0.1173166 -4.997611
vt 4.402605 -5.9998
vt 5.401373 -5.9998
vt 5.401373 -5
vt 4.402605 -5
vt 4.402605 -5.9998
vt 5.401373 -5.9998
vt 5.401373 -5
vt 4.402605 -5
vt -0.04757917 -5.9998
vt -0.04757956 -5
vt -1.046347 -5
vt -1.046347 -5.9998
vn 0 1 0
vn 0 1 0
vn 0 1 0
vn 0 1 0
vn 0 -1 0
vn 0 -1 0
vn 0 -1 0
vn 0 -1 0
vn -0.8314697 0 -0.5555702
vn -0.8314697 0 -0.5555702
vn -0.8314697 0 -0.5555702
vn -0.8314697 0 -0.5555702
vn -0.8314697 0 0.5555702
vn -0.8314697 0 0.5555702
vn -0.8314697 0 0.5555702
vn -0.8314697 0 0.5555702
vn 0 0 -1
vn 0 0 -1
vn 0 0 -1
vn 0 0 -1
vn -0.5555702 0 0.8314697
vn -0.5555702 0 0.8314697
vn -0.5555702 0 0.8314697
vn -0.5555702 0 0.8314697
vn 1 0 0
vn 1 0 0
vn 1 0 0
vn 1 0 0
vn -0.5555702 0 -0.8314697
vn -0.5555702 0 -0.8314697
vn -0.5555702 0 -0.8314697
vn -0.5555702 0 -0.8314697
vn -0.8314697 0 -0.5555702
vn -0.8314697 0 -0.5555702
vn -0.8314697 0 -0.5555702
vn -0.8314697 0 -0.5555702
vn -0.8314697 0 0.5555702
vn -0.8314697 0 0.5555702
vn -0.8314697 0 0.5555702
vn -0.8314697 0 0.5555702
vn 0 0 -1
vn 0 0 -1
vn 0 0 -1
vn 0 0 -1
vn -0.5555702 0 0.8314697
vn -0.5555702 0 0.8314697
vn -0.5555702 0 0.8314697
vn -0.5555702 0 0.8314697
vn 1 0 0
vn 1 0 0
vn 1 0 0
vn 1 0 0
vn 0 1 0
vn 0 1 0
vn 0 1 0
vn 0 1 0
vn 0 1 0
vn 0 1 0
vn 0 1 0
vn 0 1 0
vn 0 1 0
vn 0 1 0
vn -0.5555702 0 -0.8314697
vn -0.5555702 0 -0.8314697
vn -0.5555702 0 -0.8314697
vn -0.5555702 0 -0.8314697
vn 0.5555702 0 0.8314697
vn 0.5555702 0 0.8314697
vn 0.5555702 0 0.8314697
vn 0.5555702 0 0.8314697
vn 0.8314697 0 0.5555702
vn 0.8314697 0 0.5555702
vn 0.8314697 0 0.5555702
vn 0.8314697 0 0.5555702
vn 0.5555702 0 0.8314697
vn 0.5555702 0 0.8314697
vn 0.5555702 0 0.8314697
vn 0.5555702 0 0.8314697
vn 0 0 1
vn 0 0 1
vn 0 0 1
vn 0 0 1
vn -1 0 0
vn -1 0 0
vn -1 0 0
vn -1 0 0
vn 0 0 1
vn 0 0 1
vn 0 0 1
vn 0 0 1
vn -1 0 0
vn -1 0 0
vn -1 0 0
vn -1 0 0
vn 0 -1 0
vn 0 -1 0
vn 0 -1 0
vn 0 -1 0
vn 0 -1 0
vn 0 -1 0
vn 0 -1 0
vn 0 -1 0
vn 0 -1 0
vn 0 -1 0
vn 0.8314697 0 0.5555702
vn 0.8314697 0 0.5555702
vn 0.8314697 0 0.5555702
vn 0.8314697 0 0.5555702
vn 1 0 0
vn 1 0 0
vn 1 0 0
vn 1 0 0
vn 0 0 -1
vn 0 0 -1
vn 0 0 -1
vn 0 0 -1
vn 0.8314697 0 -0.5555702
vn 0.8314697 0 -0.5555702
vn 0.8314697 0 -0.5555702
vn 0.8314697 0 -0.5555702
vn 0.8314697 0 -0.5555702
vn 0.8314697 0 -0.5555702
vn 0.8314697 0 -0.5555702
vn 0.8314697 0 -0.5555702
vn 0.5555699 4.631542E-08 -0.8314698
vn 0.5555699 4.631542E-08 -0.8314698
vn 0.5555699 4.631542E-08 -0.8314698
vn 0.5555699 4.631542E-08 -0.8314698
g CornerCylinder_Mesh_0
f 3/3/3 2/2/2 1/1/1
f 4/4/4 3/3/3 1/1/1
f 7/7/7 6/6/6 5/5/5
f 8/8/8 7/7/7 5/5/5
f 11/11/11 10/10/10 9/9/9
f 12/12/12 11/11/11 9/9/9
f 15/15/15 14/14/14 13/13/13
f 16/16/16 15/15/15 13/13/13
f 19/19/19 18/18/18 17/17/17
f 20/20/20 19/19/19 17/17/17
f 23/23/23 22/22/22 21/21/21
f 24/24/24 23/23/23 21/21/21
f 27/27/27 26/26/26 25/25/25
f 28/28/28 27/27/27 25/25/25
f 31/31/31 30/30/30 29/29/29
f 32/32/32 31/31/31 29/29/29
f 35/35/35 34/34/34 33/33/33
f 36/36/36 35/35/35 33/33/33
f 39/39/39 38/38/38 37/37/37
f 40/40/40 39/39/39 37/37/37
f 43/43/43 42/42/42 41/41/41
f 44/44/44 43/43/43 41/41/41
f 47/47/47 46/46/46 45/45/45
f 48/48/48 47/47/47 45/45/45
f 51/51/51 50/50/50 49/49/49
f 52/52/52 51/51/51 49/49/49
f 53/53/53 62/62/62 54/54/54
f 58/58/58 54/54/54 61/61/61
f 54/54/54 62/62/62 61/61/61
f 58/58/58 61/61/61 59/59/59
f 59/59/59 61/61/61 60/60/60
f 55/55/55 54/54/54 58/58/58
f 56/56/56 55/55/55 58/58/58
f 57/57/57 56/56/56 58/58/58
f 65/65/65 64/64/64 63/63/63
f 66/66/66 65/65/65 63/63/63
f 69/69/69 68/68/68 67/67/67
f 70/70/70 69/69/69 67/67/67
f 73/73/73 72/72/72 71/71/71
f 74/74/74 73/73/73 71/71/71
f 77/77/77 76/76/76 75/75/75
f 78/78/78 77/77/77 75/75/75
f 81/81/81 80/80/80 79/79/79
f 82/82/82 81/81/81 79/79/79
f 85/85/85 84/84/84 83/83/83
f 86/86/86 85/85/85 83/83/83
f 89/89/89 88/88/88 87/87/87
f 90/90/90 89/89/89 87/87/87
f 93/93/93 92/92/92 91/91/91
f 94/94/94 93/93/93 91/91/91
f 103/103/103 102/102/102 101/101/101
f 103/103/103 101/101/101 100/100/100
f 103/103/103 100/100/100 104/104/104
f 104/104/104 100/100/100 99/99/99
f 104/104/104 99/99/99 95/95/95
f 95/95/95 99/99/99 98/98/98
f 95/95/95 98/98/98 96/96/96
f 96/96/96 98/98/98 97/97/97
f 107/107/107 106/106/106 105/105/105
f 108/108/108 107/107/107 105/105/105
f 119/119/119 118/118/118 117/117/117
f 120/120/120 119/119/119 117/117/117
f 123/123/123 122/122/122 121/121/121
f 124/124/124 123/123/123 121/121/121
f 127/127/127 126/126/126 125/125/125
f 128/128/128 127/127/127 125/125/125
g CornerCylinder_Mesh_1
f 111/111/111 110/110/110 109/109/109
f 112/112/112 111/111/111 109/109/109
g CornerCylinder_Mesh_2
f 115/115/115 114/114/114 113/113/113
f 116/116/116 115/115/115 113/113/113
