g Counter_Mesh
v -3 0 9
v 3 0 9
v 3 0 -9
v -3 0 -9
v -3 4 9
v -3 4 -9
v 3 4 -9
v 3 4 9
v -3 0 9
v -3 0 -9
v -3 4 -9
v -3 4 9
v -3 0 -9
v 3 0 -9
v 3 4 -9
v -3 4 -9
v 3 0 -9
v 3 0 9
v 3 4 9
v 3 4 -9
v 3 0 9
v -3 0 9
v -3 4 9
v 3 4 9
vt -3 -9
vt 3 -9
vt 3 9
vt -3 9
vt 3.999985 0.4999847
vt 2.499893 0.4999847
vt 2.499893 1.000015
vt 3.999985 1.000015
vt 3.99998 0.0001055151
vt 2.499894 0.0001055151
vt 2.499894 0.4999823
vt 3.99998 0.4999823
vt 2.499894 0.0001055151
vt 1.999922 0.0001188368
vt 1.999922 0.5000043
vt 2.499894 0.4999823
vt 1.999922 0.0001188368
vt 0.5000718 0.0001188368
vt 0.5000718 0.5000043
vt 1.999922 0.5000043
vt 0.5000718 0.0001188368
vt 0.000106208 0.0001188368
vt 0.000106208 0.5000043
vt 0.5000718 0.5000043
vn 0 -1 0
vn 0 -1 0
vn 0 -1 0
vn 0 -1 0
vn 0 1 0
vn 0 1 0
vn 0 1 0
vn 0 1 0
vn -1 0 0
vn -1 0 0
vn -1 0 0
vn -1 0 0
vn 0 0 -1
vn 0 0 -1
vn 0 0 -1
vn 0 0 -1
vn 1 0 0
vn 1 0 0
vn 1 0 0
vn 1 0 0
vn 0 0 1
vn 0 0 1
vn 0 0 1
vn 0 0 1
g Counter_Mesh_0
f 3/3/3 2/2/2 1/1/1
f 4/4/4 3/3/3 1/1/1
f 7/7/7 6/6/6 5/5/5
f 8/8/8 7/7/7 5/5/5
f 11/11/11 10/10/10 9/9/9
f 12/12/12 11/11/11 9/9/9
f 15/15/15 14/14/14 13/13/13
f 16/16/16 15/15/15 13/13/13
f 19/19/19 18/18/18 17/17/17
f 20/20/20 19/19/19 17/17/17
f 23/23/23 22/22/22 21/21/21
f 24/24/24 23/23/23 21/21/21
