g CylinderFloor_Mesh
v 0 0 5
v -1.913417 0 4.619398
v -3.535533 0 3.535535
v -4.619397 0 1.913418
v -5 0 -5.96244E-08
v -4.619397 0 -1.913418
v -3.535532 0 -3.535535
v -1.913417 0 -4.619398
v 0 0 -5
v 1.913417 0 -4.619398
v 3.535533 0 -3.535535
v 4.619397 0 -1.913418
v 5 0 -5.96244E-08
v 4.619397 0 1.913418
v 3.535532 0 3.535535
v 1.913417 0 4.619398
vt 0.5 9.998679E-05
vt 0.6913034 0.03815261
vt 0.8534826 0.1465172
vt 0.9618473 0.3086964
vt 0.9999 0.5
vt 0.9618473 0.6913036
vt 0.8534825 0.8534827
vt 0.6913034 0.9618474
vt 0.5 0.9999
vt 0.3086966 0.9618474
vt 0.1465174 0.8534828
vt 0.03815266 0.6913036
vt 9.998679E-05 0.5
vt 0.03815266 0.3086964
vt 0.1465175 0.1465172
vt 0.3086966 0.03815261
vn 0 1 0
vn 0 1 0
vn 0 1 0
vn 0 1 0
vn 0 1 0
vn 0 1 0
vn 0 1 0
vn 0 1 0
vn 0 1 0
vn 0 1 0
vn 0 1 0
vn 0 1 0
vn 0 1 0
vn 0 1 0
vn 0 1 0
vn 0 1 0
g CylinderFloor_Mesh_0
f 3/3/3 2/2/2 1/1/1
f 4/4/4 3/3/3 1/1/1
f 5/5/5 4/4/4 1/1/1
f 6/6/6 5/5/5 1/1/1
f 7/7/7 6/6/6 1/1/1
f 8/8/8 7/7/7 1/1/1
f 9/9/9 8/8/8 1/1/1
f 10/10/10 9/9/9 1/1/1
f 11/11/11 10/10/10 1/1/1
f 12/12/12 11/11/11 1/1/1
f 13/13/13 12/12/12 1/1/1
f 14/14/14 13/13/13 1/1/1
f 15/15/15 14/14/14 1/1/1
f 16/16/16 15/15/15 1/1/1
