g DetailedLocker_Mesh
v 1 0 -1
v 1 0 1
v 1 8 1
v 1 8 -1
v -1 0 1
v -1 0 -1
v -1 8 -1
v -1 8 1
v -1 0 -1
v 1 0 -1
v 1 8 -1
v -1 8 -1
vt 0.5 2.703
vt -0.5 2.703
vt -0.5 1.703
vt 0.5 1.703
vt 0.5 2.703
vt -0.5 2.703
vt -0.5 1.703
vt 0.5 1.703
vt 1 4
vt 0 4
vt 0 5
vt 1 5
vn 1 0 0
vn 1 0 0
vn 1 0 0
vn 1 0 0
vn -1 0 0
vn -1 0 0
vn -1 0 0
vn -1 0 0
vn 0 0 -1
vn 0 0 -1
vn 0 0 -1
vn 0 0 -1
g DetailedLocker_Mesh_0
f 11/11/11 10/10/10 9/9/9
f 12/12/12 11/11/11 9/9/9
g DetailedLocker_Mesh_1
f 3/3/3 2/2/2 1/1/1
f 4/4/4 3/3/3 1/1/1
f 7/7/7 6/6/6 5/5/5
f 8/8/8 7/7/7 5/5/5
