g Hoop_Mesh
v 0.9116098 8.001 -0.1767767
v 1.088387 8.001 -0.25
v 1.265163 8.001 -0.1767767
v 1.338387 8.001 1.092785E-08
v 1.265163 8.001 0.1767767
v 1.088387 8.001 0.25
v 0.9116098 8.001 0.1767767
v 0.6616098 9.501 1.176777
v 0.6616098 9.501 -1.176777
v 0.9116098 9.501 -1.176777
v 0.9116098 9.501 1.176777
v 0.6616098 7.501 1.176777
v 0.6616098 7.501 -1.176777
v 0.6616098 9.501 -1.176777
v 0.6616098 9.501 1.176777
v 0.9116098 9.501 1.176777
v 0.9116098 7.501 1.176777
v 0.6616098 7.501 1.176777
v 0.6616098 9.501 1.176777
v 0.9116098 7.501 -1.176777
v 0.9116098 9.501 -1.176777
v 0.6616098 9.501 -1.176777
v 0.6616098 7.501 -1.176777
v 0.6616135 7.717684 0.002960249
v 0.3687202 7.717684 0.710067
v 0.3687202 7.917684 0.710067
v 0.6616135 7.917684 0.002960249
v 0.3687202 7.717684 -0.7041466
v 0.6616135 7.717684 0.002960249
v 0.6616135 7.917684 0.002960249
v 0.3687202 7.917684 -0.7041466
v -0.3383865 7.717684 -0.9970398
v 0.3687202 7.717684 -0.7041466
v 0.3687202 7.917684 -0.7041466
v -0.3383865 7.917684 -0.9970398
v -1.045493 7.717684 -0.7041466
v -0.3383865 7.717684 -0.9970398
v -0.3383865 7.917684 -0.9970398
v -1.045493 7.917684 -0.7041466
v -1.338387 7.717684 0.002960249
v -1.045493 7.717684 -0.7041466
v -1.045493 7.917684 -0.7041466
v -1.338387 7.917684 0.002960249
v -1.045493 7.717684 0.710067
v -1.338387 7.717684 0.002960249
v -1.338387 7.917684 0.002960249
v -1.045493 7.917684 0.710067
v -0.3383864 7.717684 1.00296
v -1.045493 7.717684 0.710067
v -1.045493 7.917684 0.710067
v -0.3383864 7.917684 1.00296
v 0.3687202 7.717684 0.710067
v -0.3383864 7.717684 1.00296
v -0.3383864 7.917684 1.00296
v 0.3687202 7.917684 0.710067
v -0.3383864 7.917684 1.00296
v -1.045493 7.917684 0.710067
v -1.338387 7.917684 0.002960249
v -1.045493 7.917684 -0.7041466
v -0.3383865 7.917684 -0.9970398
v 0.3687202 7.917684 -0.7041466
v 0.6616135 7.917684 0.002960249
v 0.3687202 7.917684 0.710067
v -0.9040742 7.917684 0.5686477
v -0.3383867 7.917684 0.8029633
v 0.2273006 7.917684 0.5686482
v 0.4616165 7.917684 0.002960505
v 0.2273011 7.917684 -0.5627273
v -0.3383864 7.917684 -0.7970428
v -0.904074 7.917684 -0.5627276
v -1.13839 7.917684 0.002960225
v -0.3383867 7.717684 0.8029633
v -0.3383867 7.917684 0.8029633
v -0.9040742 7.917684 0.5686477
v -0.9040742 7.717684 0.5686477
v -0.9040742 7.717684 0.5686477
v -0.9040742 7.917684 0.5686477
v -1.13839 7.917684 0.002960225
v -1.13839 7.717684 0.002960225
v -1.13839 7.717684 0.002960225
v -1.13839 7.917684 0.002960225
v -0.904074 7.917684 -0.5627276
v -0.904074 7.717684 -0.5627276
v -0.904074 7.717684 -0.5627276
v -0.904074 7.917684 -0.5627276
v -0.3383864 7.917684 -0.7970428
v -0.3383864 7.717684 -0.7970428
v -0.3383864 7.717684 -0.7970428
v -0.3383864 7.917684 -0.7970428
v 0.2273011 7.917684 -0.5627273
v 0.2273011 7.717684 -0.5627273
v 0.2273011 7.717684 -0.5627273
v 0.2273011 7.917684 -0.5627273
v 0.4616165 7.917684 0.002960505
v 0.4616165 7.717684 0.002960505
v 0.4616165 7.717684 0.002960505
v 0.4616165 7.917684 0.002960505
v 0.2273006 7.917684 0.5686482
v 0.2273006 7.717684 0.5686482
v 0.2273006 7.717684 0.5686482
v 0.2273006 7.917684 0.5686482
v -0.3383867 7.917684 0.8029633
v -0.3383867 7.717684 0.8029633
v 0.3687202 7.717684 0.710067
v 0.6616135 7.717684 0.002960249
v 0.3687202 7.717684 -0.7041466
v -0.3383865 7.717684 -0.9970398
v -1.045493 7.717684 -0.7041466
v -1.338387 7.717684 0.002960249
v -1.045493 7.717684 0.710067
v -0.3383864 7.717684 1.00296
v 0.2273006 7.717684 0.5686482
v -0.3383867 7.717684 0.8029633
v -0.9040742 7.717684 0.5686477
v -1.13839 7.717684 0.002960225
v -0.904074 7.717684 -0.5627276
v -0.3383864 7.717684 -0.7970428
v 0.2273011 7.717684 -0.5627273
v 0.4616165 7.717684 0.002960505
v 0.9116098 7.501 -0.1767767
v 0.9116098 8.001 -0.1767767
v 0.9116098 8.001 0.1767767
v 0.9116098 7.501 0.1767767
v 0.9116098 7.501 1.176777
v 0.9116098 9.501 1.176777
v 0.9116098 9.501 -1.176777
v 0.9116098 7.501 -1.176777
v 1.265163 0.001000047 0.1767767
v 1.265163 8.001 0.1767767
v 1.338387 8.001 1.092785E-08
v 1.338387 0.001000047 1.092785E-08
v 1.338387 0.001000047 1.092785E-08
v 1.338387 8.001 1.092785E-08
v 1.265163 8.001 -0.1767767
v 1.265163 0.001000047 -0.1767767
v 1.265163 0.001000047 -0.1767767
v 1.265163 8.001 -0.1767767
v 1.088387 8.001 -0.25
v 1.088387 0.001000047 -0.25
v 1.088387 0.001000047 -0.25
v 1.088387 8.001 -0.25
v 0.9116098 8.001 -0.1767767
v 0.9116098 0.001000047 -0.1767767
v 0.9116098 0.001000047 -0.1767767
v 0.9116098 7.501 -0.1767767
v 0.8383865 7.501 1.092785E-08
v 0.8383865 0.001000047 1.092785E-08
v 0.8383865 0.001000047 1.092785E-08
v 0.8383865 7.501 1.092785E-08
v 0.9116098 7.501 0.1767767
v 0.9116098 0.001000047 0.1767767
v 0.9116098 0.001000047 0.1767767
v 0.9116098 8.001 0.1767767
v 1.088387 8.001 0.25
v 1.088387 0.001000047 0.25
v 1.088387 0.001000047 0.25
v 1.088387 8.001 0.25
v 1.265163 8.001 0.1767767
v 1.265163 0.001000047 0.1767767
v 1.265163 0.001000047 0.1767767
v 1.338387 0.001000047 1.092785E-08
v 1.265163 0.001000047 -0.1767767
v 1.088387 0.001000047 -0.25
v 0.9116098 0.001000047 -0.1767767
v 0.8383865 0.001000047 1.092785E-08
v 0.9116098 0.001000047 0.1767767
v 1.088387 0.001000047 0.25
v 0.6616098 7.501 -1.176777
v 0.6616098 7.501 1.176777
v 0.9116098 7.501 1.176777
v 0.9116098 7.501 0.1767767
v 0.8383865 7.501 1.092785E-08
v 0.9116098 7.501 -0.1767767
v 0.9116098 7.501 -1.176777
vt 0.1767767 0.1767767
vt 0 0.25
vt -0.1767767 0.1767767
vt -0.25 -1.092785E-08
vt -0.1767767 -0.1767767
vt -2.185569E-08 -0.25
vt 0.1767767 -0.1767767
vt 0.4267767 -1.176777
vt 0.4267767 1.176777
vt 0.1767767 1.176777
vt 0.1767767 -1.176777
vt 1.176777 -11.5
vt -1.176777 -11.5
vt -1.176777 -13.5
vt 1.176777 -13.5
vt -0.1767767 -13.5
vt -0.1767767 -11.5
vt -0.4267767 -11.5
vt -0.4267767 -13.5
vt 0.1767767 -11.5
vt 0.1767767 -13.5
vt 0.4267767 -13.5
vt 0.4267767 -11.5
vt -0.002960249 -11.71668
vt -0.710067 -11.71668
vt -0.710067 -11.91668
vt -0.002960249 -11.91668
vt 0.7041466 -11.71668
vt -0.002960249 -11.71668
vt -0.002960249 -11.91668
vt 0.7041466 -11.91668
vt 1.426773 -11.71668
vt 0.7196663 -11.71668
vt 0.7196663 -11.91668
vt 1.426773 -11.91668
vt 2.13388 -11.71668
vt 1.426773 -11.71668
vt 1.426773 -11.91668
vt 2.13388 -11.91668
vt 0.002960249 -11.71668
vt -0.7041466 -11.71668
vt -0.7041466 -11.91668
vt 0.002960249 -11.91668
vt 0.710067 -11.71668
vt 0.002960249 -11.71668
vt 0.002960249 -11.91668
vt 0.710067 -11.91668
vt -1.426773 -11.71668
vt -2.13388 -11.71668
vt -2.13388 -11.91668
vt -1.426773 -11.91668
vt -0.7196663 -11.71668
vt -1.426773 -11.71668
vt -1.426773 -11.91668
vt -0.7196663 -11.91668
vt 1.426773 -1.00296
vt 2.13388 -0.710067
vt 2.426773 -0.002960249
vt 2.13388 0.7041466
vt 1.426773 0.9970398
vt 0.7196663 0.7041466
vt 0.4267731 -0.002960249
vt 0.7196663 -0.710067
vt 1.992461 -0.5686477
vt 1.426773 -0.8029633
vt 0.8610859 -0.5686482
vt 0.62677 -0.002960505
vt 0.8610855 0.5627273
vt 1.426773 0.7970428
vt 1.99246 0.5627276
vt 2.226776 -0.002960225
vt -1.426773 -11.71668
vt -1.426773 -11.91668
vt -1.992461 -11.91668
vt -1.992461 -11.71668
vt 0.5686477 -11.71668
vt 0.5686477 -11.91668
vt 0.002960225 -11.91668
vt 0.002960225 -11.71668
vt 0.002960225 -11.71668
vt 0.002960225 -11.91668
vt -0.5627276 -11.91668
vt -0.5627276 -11.71668
vt 1.99246 -11.71668
vt 1.99246 -11.91668
vt 1.426773 -11.91668
vt 1.426773 -11.71668
vt 1.426773 -11.71668
vt 1.426773 -11.91668
vt 0.8610855 -11.91668
vt 0.8610855 -11.71668
vt 0.5627273 -11.71668
vt 0.5627273 -11.91668
vt -0.002960505 -11.91668
vt -0.002960505 -11.71668
vt -0.002960505 -11.71668
vt -0.002960505 -11.91668
vt -0.5686482 -11.91668
vt -0.5686482 -11.71668
vt -0.8610859 -11.71668
vt -0.8610859 -11.91668
vt -1.426773 -11.91668
vt -1.426773 -11.71668
vt -0.7196663 0.710067
vt -0.4267731 0.002960249
vt -0.7196663 -0.7041466
vt -1.426773 -0.9970398
vt -2.13388 -0.7041466
vt -2.426773 0.002960249
vt -2.13388 0.710067
vt -1.426773 1.00296
vt -0.8610859 0.5686482
vt -1.426773 0.8029633
vt -1.992461 0.5686477
vt -2.226776 0.002960225
vt -1.99246 -0.5627276
vt -1.426773 -0.7970428
vt -0.8610855 -0.5627273
vt -0.62677 0.002960505
vt 0.1767767 -11.5
vt 0.1767767 -12
vt -0.1767767 -12
vt -0.1767767 -11.5
vt -1.176777 -11.5
vt -1.176777 -13.5
vt 1.176777 -13.5
vt 1.176777 -11.5
vt -0.1767767 -2.001
vt -0.1767767 -10.001
vt -1.092785E-08 -10.001
vt -1.092785E-08 -2.001
vt -1.092785E-08 -2.001
vt -1.092785E-08 -10.001
vt 0.1767767 -10.001
vt 0.1767767 -2.001
vt -1.265163 -2.001
vt -1.265163 -10.001
vt -1.088387 -10.001
vt -1.088387 -2.001
vt -1.088387 -2.001
vt -1.088387 -10.001
vt -0.9116098 -10.001
vt -0.9116098 -2.001
vt -0.1767767 -2.001
vt -0.1767767 -9.501
vt 1.092785E-08 -9.501
vt 1.092785E-08 -2.001
vt 1.092785E-08 -2.001
vt 1.092785E-08 -9.501
vt 0.1767767 -9.501
vt 0.1767767 -2.001
vt 0.9116098 -2.001
vt 0.9116098 -10.001
vt 1.088387 -10.001
vt 1.088387 -2.001
vt 1.088387 -2.001
vt 1.088387 -10.001
vt 1.265163 -10.001
vt 1.265163 -2.001
vt 0.1767767 0.1767767
vt 0.25 1.092785E-08
vt 0.1767767 -0.1767767
vt 0 -0.25
vt -0.1767767 -0.1767767
vt -0.25 1.092785E-08
vt -0.1767767 0.1767767
vt 2.185569E-08 0.25
vt 0.6616098 -1.176777
vt 0.6616098 1.176777
vt 0.9116098 1.176777
vt 0.9116098 0.1767767
vt 0.8383865 1.092785E-08
vt 0.9116098 -0.1767767
vt 0.9116098 -1.176777
vn 0 1 0
vn 0 1 0
vn 0 1 0
vn 0 1 0
vn 0 1 0
vn 0 1 0
vn 0 1 0
vn 0 1 0
vn 0 1 0
vn 0 1 0
vn 0 1 0
vn -1 0 0
vn -1 0 0
vn -1 0 0
vn -1 0 0
vn 0 0 1
vn 0 0 1
vn 0 0 1
vn 0 0 1
vn 0 0 -1
vn 0 0 -1
vn 0 0 -1
vn 0 0 -1
vn 0.9238795 0 0.3826835
vn 0.9238795 0 0.3826835
vn 0.9238795 0 0.3826835
vn 0.9238795 0 0.3826835
vn 0.9238796 0 -0.3826834
vn 0.9238796 0 -0.3826834
vn 0.9238796 0 -0.3826834
vn 0.9238796 0 -0.3826834
vn 0.3826835 0 -0.9238795
vn 0.3826835 0 -0.9238795
vn 0.3826835 0 -0.9238795
vn 0.3826835 0 -0.9238795
vn -0.3826834 0 -0.9238796
vn -0.3826834 0 -0.9238796
vn -0.3826834 0 -0.9238796
vn -0.3826834 0 -0.9238796
vn -0.9238796 0 -0.3826833
vn -0.9238796 0 -0.3826833
vn -0.9238796 0 -0.3826833
vn -0.9238796 0 -0.3826833
vn -0.9238796 0 0.3826834
vn -0.9238796 0 0.3826834
vn -0.9238796 0 0.3826834
vn -0.9238796 0 0.3826834
vn -0.3826834 0 0.9238796
vn -0.3826834 0 0.9238796
vn -0.3826834 0 0.9238796
vn -0.3826834 0 0.9238796
vn 0.3826835 0 0.9238795
vn 0.3826835 0 0.9238795
vn 0.3826835 0 0.9238795
vn 0.3826835 0 0.9238795
vn 0 1 0
vn 0 1 0
vn 0 1 0
vn 0 1 0
vn 0 1 0
vn 0 1 0
vn 0 1 0
vn 0 1 0
vn 0 1 0
vn 0 1 0
vn 0 1 0
vn 0 1 0
vn 0 1 0
vn 0 1 0
vn 0 1 0
vn 0 1 0
vn 0.3826835 0 -0.9238795
vn 0.3826835 0 -0.9238795
vn 0.3826835 0 -0.9238795
vn 0.3826835 0 -0.9238795
vn 0.9238796 0 -0.3826834
vn 0.9238796 0 -0.3826834
vn 0.9238796 0 -0.3826834
vn 0.9238796 0 -0.3826834
vn 0.9238795 0 0.3826836
vn 0.9238795 0 0.3826836
vn 0.9238795 0 0.3826836
vn 0.9238795 0 0.3826836
vn 0.3826832 0 0.9238797
vn 0.3826832 0 0.9238797
vn 0.3826832 0 0.9238797
vn 0.3826832 0 0.9238797
vn -0.3826835 0 0.9238795
vn -0.3826835 0 0.9238795
vn -0.3826835 0 0.9238795
vn -0.3826835 0 0.9238795
vn -0.9238796 0 0.3826833
vn -0.9238796 0 0.3826833
vn -0.9238796 0 0.3826833
vn -0.9238796 0 0.3826833
vn -0.9238793 0 -0.3826839
vn -0.9238793 0 -0.3826839
vn -0.9238793 0 -0.3826839
vn -0.9238793 0 -0.3826839
vn -0.382683 0 -0.9238797
vn -0.382683 0 -0.9238797
vn -0.382683 0 -0.9238797
vn -0.382683 0 -0.9238797
vn 0 -1 0
vn 0 -1 0
vn 0 -1 0
vn 0 -1 0
vn 0 -1 0
vn 0 -1 0
vn 0 -1 0
vn 0 -1 0
vn 0 -1 0
vn 0 -1 0
vn 0 -1 0
vn 0 -1 0
vn 0 -1 0
vn 0 -1 0
vn 0 -1 0
vn 0 -1 0
vn 1 0 0
vn 1 0 0
vn 1 0 0
vn 1 0 0
vn 1 0 0
vn 1 0 0
vn 1 0 0
vn 1 0 0
vn 0.9238794 0 0.3826837
vn 0.9238794 0 0.3826837
vn 0.9238794 0 0.3826837
vn 0.9238794 0 0.3826837
vn 0.9238794 0 -0.3826836
vn 0.9238794 0 -0.3826836
vn 0.9238794 0 -0.3826836
vn 0.9238794 0 -0.3826836
vn 0.3826835 0 -0.9238795
vn 0.3826835 0 -0.9238795
vn 0.3826835 0 -0.9238795
vn 0.3826835 0 -0.9238795
vn -0.3826834 0 -0.9238796
vn -0.3826834 0 -0.9238796
vn -0.3826834 0 -0.9238796
vn -0.3826834 0 -0.9238796
vn -0.9238796 0 -0.3826833
vn -0.9238796 0 -0.3826833
vn -0.9238796 0 -0.3826833
vn -0.9238796 0 -0.3826833
vn -0.9238796 0 0.3826834
vn -0.9238796 0 0.3826834
vn -0.9238796 0 0.3826834
vn -0.9238796 0 0.3826834
vn -0.3826833 0 0.9238796
vn -0.3826833 0 0.9238796
vn -0.3826833 0 0.9238796
vn -0.3826833 0 0.9238796
vn 0.3826835 -1.72086E-09 0.9238795
vn 0.3826835 -1.72086E-09 0.9238795
vn 0.3826835 -1.72086E-09 0.9238795
vn 0.3826835 -1.72086E-09 0.9238795
vn 0 -1 0
vn 0 -1 0
vn 0 -1 0
vn 0 -1 0
vn 0 -1 0
vn 0 -1 0
vn 0 -1 0
vn 0 -1 0
vn 0 -1 0
vn 0 -1 0
vn 0 -1 0
vn 0 -1 0
vn 0 -1 0
vn 0 -1 0
vn 0 -1 0
g Hoop_Mesh_0
f 3/3/3 2/2/2 1/1/1
f 4/4/4 3/3/3 1/1/1
f 5/5/5 4/4/4 1/1/1
f 6/6/6 5/5/5 1/1/1
f 7/7/7 6/6/6 1/1/1
f 130/130/130 129/129/129 128/128/128
f 131/131/131 130/130/130 128/128/128
f 134/134/134 133/133/133 132/132/132
f 135/135/135 134/134/134 132/132/132
f 138/138/138 137/137/137 136/136/136
f 139/139/139 138/138/138 136/136/136
f 142/142/142 141/141/141 140/140/140
f 143/143/143 142/142/142 140/140/140
f 146/146/146 145/145/145 144/144/144
f 147/147/147 146/146/146 144/144/144
f 150/150/150 149/149/149 148/148/148
f 151/151/151 150/150/150 148/148/148
f 154/154/154 153/153/153 152/152/152
f 155/155/155 154/154/154 152/152/152
f 158/158/158 157/157/157 156/156/156
f 159/159/159 158/158/158 156/156/156
f 162/162/162 161/161/161 160/160/160
f 163/163/163 162/162/162 160/160/160
f 164/164/164 163/163/163 160/160/160
f 165/165/165 164/164/164 160/160/160
f 166/166/166 165/165/165 160/160/160
f 167/167/167 166/166/166 160/160/160
g Hoop_Mesh_1
f 26/26/26 25/25/25 24/24/24
f 27/27/27 26/26/26 24/24/24
f 30/30/30 29/29/29 28/28/28
f 31/31/31 30/30/30 28/28/28
f 34/34/34 33/33/33 32/32/32
f 35/35/35 34/34/34 32/32/32
f 38/38/38 37/37/37 36/36/36
f 39/39/39 38/38/38 36/36/36
f 42/42/42 41/41/41 40/40/40
f 43/43/43 42/42/42 40/40/40
f 46/46/46 45/45/45 44/44/44
f 47/47/47 46/46/46 44/44/44
f 50/50/50 49/49/49 48/48/48
f 51/51/51 50/50/50 48/48/48
f 54/54/54 53/53/53 52/52/52
f 55/55/55 54/54/54 52/52/52
f 71/71/71 57/57/57 64/64/64
f 64/64/64 57/57/57 56/56/56
f 64/64/64 56/56/56 65/65/65
f 65/65/65 56/56/56 66/66/66
f 66/66/66 56/56/56 63/63/63
f 66/66/66 63/63/63 67/67/67
f 61/61/61 67/67/67 62/62/62
f 67/67/67 63/63/63 62/62/62
f 58/58/58 57/57/57 71/71/71
f 58/58/58 71/71/71 59/59/59
f 59/59/59 71/71/71 70/70/70
f 59/59/59 70/70/70 69/69/69
f 59/59/59 69/69/69 60/60/60
f 60/60/60 69/69/69 68/68/68
f 68/68/68 67/67/67 61/61/61
f 60/60/60 68/68/68 61/61/61
f 74/74/74 73/73/73 72/72/72
f 75/75/75 74/74/74 72/72/72
f 78/78/78 77/77/77 76/76/76
f 79/79/79 78/78/78 76/76/76
f 82/82/82 81/81/81 80/80/80
f 83/83/83 82/82/82 80/80/80
f 86/86/86 85/85/85 84/84/84
f 87/87/87 86/86/86 84/84/84
f 90/90/90 89/89/89 88/88/88
f 91/91/91 90/90/90 88/88/88
f 94/94/94 93/93/93 92/92/92
f 95/95/95 94/94/94 92/92/92
f 98/98/98 97/97/97 96/96/96
f 99/99/99 98/98/98 96/96/96
f 102/102/102 101/101/101 100/100/100
f 103/103/103 102/102/102 100/100/100
f 115/115/115 108/108/108 116/116/116
f 116/116/116 108/108/108 107/107/107
f 116/116/116 107/107/107 117/117/117
f 117/117/117 107/107/107 118/118/118
f 118/118/118 107/107/107 106/106/106
f 118/118/118 106/106/106 119/119/119
f 104/104/104 119/119/119 105/105/105
f 119/119/119 106/106/106 105/105/105
f 109/109/109 108/108/108 115/115/115
f 109/109/109 115/115/115 110/110/110
f 110/110/110 115/115/115 114/114/114
f 110/110/110 114/114/114 113/113/113
f 110/110/110 113/113/113 111/111/111
f 111/111/111 113/113/113 112/112/112
f 112/112/112 119/119/119 104/104/104
f 111/111/111 112/112/112 104/104/104
g Hoop_Mesh_2
f 10/10/10 9/9/9 8/8/8
f 11/11/11 10/10/10 8/8/8
f 14/14/14 13/13/13 12/12/12
f 15/15/15 14/14/14 12/12/12
f 18/18/18 17/17/17 16/16/16
f 19/19/19 18/18/18 16/16/16
f 22/22/22 21/21/21 20/20/20
f 23/23/23 22/22/22 20/20/20
f 124/124/124 123/123/123 122/122/122
f 124/124/124 122/122/122 126/126/126
f 124/124/124 126/126/126 125/125/125
f 120/120/120 127/127/127 121/121/121
f 122/122/122 121/121/121 126/126/126
f 121/121/121 127/127/127 126/126/126
f 173/173/173 172/172/172 174/174/174
f 168/168/168 174/174/174 172/172/172
f 172/172/172 171/171/171 169/169/169
f 168/168/168 172/172/172 169/169/169
f 169/169/169 171/171/171 170/170/170
