g MathMachine_Final_Mesh
v -5 0.001 -2
v 5 0.001 -2
v 5 9.001 -2
v -5 9.001 -2
v -5 9.001 5
v -5 9.001 -2
v 5 9.001 -2
v 5 9.001 5
v -5 0.001 5
v 5 0.001 5
v 5 0.001 -2
v -5 0.001 -2
v -5 0.001 5
v -5 0.001 -2
v -5 9.001 -2
v -5 9.001 5
v 5 0.001 -2
v 5 0.001 5
v 5 9.001 5
v 5 9.001 -2
v 5 0.001 5
v -5 0.001 5
v -5 9.001 5
v 5 9.001 5
vt 1 4.001
vt 0 4.001
vt 0 5.001
vt 1 5.001
vt 1 2.879963
vt 1 2.004963
vt 0 2.004963
vt 0 2.879963
vt 0 1.629963
vt 1 1.629963
vt 1 2.504963
vt 0 2.504963
vt 1.000143 4.001112
vt 1.999857 4.001112
vt 1.999857 5.000889
vt 1.000143 5.000889
vt -1.000143 4.001112
vt -1.999857 4.001112
vt -1.999857 5.000889
vt -1.000143 5.000889
vt 0.9999 4.001112
vt 9.998679E-05 4.001112
vt 9.998679E-05 5.000889
vt 0.9999 5.000889
vn 0 0 -1
vn 0 0 -1
vn 0 0 -1
vn 0 0 -1
vn 0 1 0
vn 0 1 0
vn 0 1 0
vn 0 1 0
vn 0 -1 0
vn 0 -1 0
vn 0 -1 0
vn 0 -1 0
vn -1 0 0
vn -1 0 0
vn -1 0 0
vn -1 0 0
vn 1 0 0
vn 1 0 0
vn 1 0 0
vn 1 0 0
vn 0 0 1
vn 0 0 1
vn 0 0 1
vn 0 0 1
g MathMachine_Final_Mesh_0
f 3/3/3 2/2/2 1/1/1
f 4/4/4 3/3/3 1/1/1
g MathMachine_Final_Mesh_1
f 1/1/1 1/1/1 1/1/1
g MathMachine_Final_Mesh_2
f 7/7/7 6/6/6 5/5/5
f 8/8/8 7/7/7 5/5/5
f 11/11/11 10/10/10 9/9/9
f 12/12/12 11/11/11 9/9/9
f 15/15/15 14/14/14 13/13/13
f 16/16/16 15/15/15 13/13/13
f 19/19/19 18/18/18 17/17/17
f 20/20/20 19/19/19 17/17/17
f 23/23/23 22/22/22 21/21/21
f 24/24/24 23/23/23 21/21/21
