g PriceTag_Umodel_Mesh
v -0.5 0.0009999275 1
v 0.5 0.0009999275 1
v 0.5 0.0009999275 -1
v -0.5 0.0009999275 -1
v 0.5 0.0009999275 -1
v 0.5 0.0009999275 1
v 0.375 0.6259999 1
v 0.375 0.6259999 -1
v 0.375 0.6259999 -1
v 0.375 0.6259999 1
v -0.5 0.0009999275 1
v -0.5 0.0009999275 -1
v -0.5 0.0009999275 -1
v 0.5 0.0009999275 -1
v 0.375 0.6259999 -1
v 0.375 0.6259999 1
v 0.5 0.0009999275 1
v -0.5 0.0009999275 1
vt 0.05125 0.11875
vt 0.15125 0.11875
vt 0.15125 0.31875
vt 0.05125 0.31875
vt 0.25125 0.16875
vt 0.05125 0.16875
vt 0.05125 0.23125
vt 0.25125 0.23125
vt 0.06375 0.01875
vt 0.06375 0.21875
vt 0.15125 0.21875
vt 0.15125 0.01875
vt 0.15125 0.16875
vt 0.05125 0.16875
vt 0.06375 0.23125
vt 0.13875 0.23125
vt 0.15125 0.16875
vt 0.05125 0.16875
vn 0 -1 0
vn 0 -1 0
vn 0 -1 0
vn 0 -1 0
vn 0.9805807 0.1961161 0
vn 0.9805807 0.1961161 0
vn 0.9805807 0.1961161 0
vn 0.9805807 0.1961161 0
vn -0.5812382 0.8137335 0
vn -0.5812382 0.8137335 0
vn -0.5812382 0.8137335 0
vn -0.5812382 0.8137335 0
vn 0 0 -1
vn 0 0 -1
vn 0 0 -1
vn 0 0 1
vn 0 0 1
vn 0 0 1
g PriceTag_Umodel_Mesh_0
f 3/3/3 2/2/2 1/1/1
f 4/4/4 3/3/3 1/1/1
f 7/7/7 6/6/6 5/5/5
f 8/8/8 7/7/7 5/5/5
f 11/11/11 10/10/10 9/9/9
f 12/12/12 11/11/11 9/9/9
f 15/15/15 14/14/14 13/13/13
f 18/18/18 17/17/17 16/16/16
