g RoundTable_Umodel_Mesh
v -0.75 3.001 -3.278354E-08
v -0.5303301 3.001 0.5303301
v -0.5303301 0.0009999275 0.5303301
v -0.75 0.0009999275 -3.278354E-08
v -0.5303301 3.001 0.5303301
v 0 3.001 0.75
v 0 0.0009999275 0.75
v -0.5303301 0.0009999275 0.5303301
v 0 3.001 0.75
v 0.5303301 3.001 0.5303301
v 0.5303301 0.0009999275 0.5303301
v 0 0.0009999275 0.75
v 0.5303301 3.001 0.5303301
v 0.75 3.001 -3.278354E-08
v 0.75 0.0009999275 -3.278354E-08
v 0.5303301 0.0009999275 0.5303301
v 0.75 3.001 -3.278354E-08
v 0.5303301 3.001 -0.5303301
v 0.5303301 0.0009999275 -0.5303301
v 0.75 0.0009999275 -3.278354E-08
v 0.5303301 3.001 -0.5303301
v -6.556708E-08 3.001 -0.75
v -6.556708E-08 0.0009999275 -0.75
v 0.5303301 0.0009999275 -0.5303301
v -6.556708E-08 3.001 -0.75
v -0.5303302 3.001 -0.53033
v -0.5303302 0.0009999275 -0.53033
v -6.556708E-08 0.0009999275 -0.75
v -0.5303302 3.001 -0.53033
v -0.75 3.001 -3.278354E-08
v -0.75 0.0009999275 -3.278354E-08
v -0.5303302 0.0009999275 -0.53033
v -0.75 0.0009999275 -3.278354E-08
v -0.5303301 0.0009999275 0.5303301
v 0 0.0009999275 0.75
v 0.5303301 0.0009999275 0.5303301
v 0.75 0.0009999275 -3.278354E-08
v 0.5303301 0.0009999275 -0.5303301
v -6.556708E-08 0.0009999275 -0.75
v -0.5303302 0.0009999275 -0.53033
v -3.695518 3.001 1.530734
v -4 3.001 1.748456E-07
v -4 3.201 1.748456E-07
v -3.695518 3.201 1.530734
v -2.828427 3.001 2.828427
v -3.695518 3.001 1.530734
v -3.695518 3.201 1.530734
v -2.828427 3.201 2.828427
v -1.530733 3.001 3.695518
v -2.828427 3.001 2.828427
v -2.828427 3.201 2.828427
v -1.530733 3.201 3.695518
v 3.496911E-07 3.001 4
v -1.530733 3.001 3.695518
v -1.530733 3.201 3.695518
v 3.496911E-07 3.201 4
v 1.530733 3.001 3.695518
v 3.496911E-07 3.001 4
v 3.496911E-07 3.201 4
v 1.530733 3.201 3.695518
v -1.530734 3.001 -3.695518
v 0 3.001 -4
v 0 3.201 -4
v -1.530734 3.201 -3.695518
v -2.828427 3.001 -2.828427
v -1.530734 3.001 -3.695518
v -1.530734 3.201 -3.695518
v -2.828427 3.201 -2.828427
v -3.695518 3.001 -1.530734
v -2.828427 3.001 -2.828427
v -2.828427 3.201 -2.828427
v -3.695518 3.201 -1.530734
v -4 3.001 1.748456E-07
v -3.695518 3.001 -1.530734
v -3.695518 3.201 -1.530734
v -4 3.201 1.748456E-07
v 3.695518 3.001 1.530734
v 2.828427 3.001 2.828427
v 2.828427 3.201 2.828427
v 3.695518 3.201 1.530734
v 4 3.001 1.748456E-07
v 3.695518 3.001 1.530734
v 3.695518 3.201 1.530734
v 4 3.201 1.748456E-07
v 3.695518 3.001 -1.530734
v 4 3.001 1.748456E-07
v 4 3.201 1.748456E-07
v 3.695518 3.201 -1.530734
v 2.828427 3.001 -2.828427
v 3.695518 3.001 -1.530734
v 3.695518 3.201 -1.530734
v 2.828427 3.201 -2.828427
v 1.530734 3.001 -3.695518
v 2.828427 3.001 -2.828427
v 2.828427 3.201 -2.828427
v 1.530734 3.201 -3.695518
v 0 3.001 -4
v 1.530734 3.001 -3.695518
v 1.530734 3.201 -3.695518
v 0 3.201 -4
v 3.496911E-07 3.201 4
v -1.530733 3.201 3.695518
v -2.828427 3.201 2.828427
v -3.695518 3.201 1.530734
v -4 3.201 1.748456E-07
v -3.695518 3.201 -1.530734
v -2.828427 3.201 -2.828427
v -1.530734 3.201 -3.695518
v 0 3.201 -4
v 1.530734 3.201 -3.695518
v 2.828427 3.201 -2.828427
v 3.695518 3.201 -1.530734
v 4 3.201 1.748456E-07
v 3.695518 3.201 1.530734
v 2.828427 3.201 2.828427
v 1.530733 3.201 3.695518
v 1.530733 3.001 3.695518
v 2.828427 3.001 2.828427
v 3.695518 3.001 1.530734
v 4 3.001 1.748456E-07
v 3.695518 3.001 -1.530734
v 2.828427 3.001 -2.828427
v 1.530734 3.001 -3.695518
v 0 3.001 -4
v -1.530734 3.001 -3.695518
v -2.828427 3.001 -2.828427
v -3.695518 3.001 -1.530734
v -4 3.001 1.748456E-07
v -3.695518 3.001 1.530734
v -2.828427 3.001 2.828427
v -1.530733 3.001 3.695518
v 3.496911E-07 3.001 4
v -0.5303301 3.001 0.5303301
v -0.75 3.001 -3.278354E-08
v -0.5303302 3.001 -0.53033
v -6.556708E-08 3.001 -0.75
v 0.5303301 3.001 -0.5303301
v 0.75 3.001 -3.278354E-08
v 0.5303301 3.001 0.5303301
v 0 3.001 0.75
v 2.828427 3.001 2.828427
v 1.530733 3.001 3.695518
v 1.530733 3.201 3.695518
v 2.828427 3.201 2.828427
vt -5.960464E-08 0
vt 0.5303301 0
vt 0.5303301 -3
vt -5.960464E-08 -3
vt -0.5303301 0
vt 0 0
vt 0 -3
vt -0.5303301 -3
vt 0 0
vt 0.5303301 0
vt 0.5303301 -3
vt 0 -3
vt -0.5303301 0
vt 2.980232E-08 0
vt 2.980232E-08 -3
vt -0.5303301 -3
vt 2.980232E-08 0
vt 0.5303301 0
vt 0.5303301 -3
vt 2.980232E-08 -3
vt -0.5303301 0
vt 5.960464E-08 0
vt 5.960464E-08 -3
vt -0.5303301 -3
vt 5.960464E-08 0
vt 0.5303302 0
vt 0.5303302 -3
vt 5.960464E-08 -3
vt -0.5303299 0
vt -5.960464E-08 0
vt -5.960464E-08 -3
vt -0.5303299 -3
vt -0.75 2.980232E-08
vt -0.5303301 -0.5303301
vt 0 -0.75
vt 0.5303301 -0.5303301
vt 0.75 2.980232E-08
vt 0.5303301 0.5303301
vt -5.960464E-08 0.75
vt -0.5303302 0.53033
vt 0.1530734 2.7809
vt 4.132641E-08 2.7809
vt 4.132641E-08 2.8009
vt 0.1530734 2.8009
vt 0.2828428 2.7809
vt 0.1530734 2.7809
vt 0.1530734 2.8009
vt 0.2828428 2.8009
vt -0.1530733 2.7809
vt -0.2828427 2.7809
vt -0.2828427 2.8009
vt -0.1530733 2.8009
vt 5.881097E-08 2.7809
vt -0.1530733 2.7809
vt -0.1530733 2.8009
vt 5.881097E-08 2.8009
vt 0.1530733 2.7809
vt 5.881097E-08 2.7809
vt 5.881097E-08 2.8009
vt 0.1530733 2.8009
vt 0.1530734 2.7809
vt 2.384186E-08 2.7809
vt 2.384186E-08 2.8009
vt 0.1530734 2.8009
vt 0.2828428 2.7809
vt 0.1530734 2.7809
vt 0.1530734 2.8009
vt 0.2828428 2.8009
vt -0.1530733 2.7809
vt -0.2828427 2.7809
vt -0.2828427 2.8009
vt -0.1530733 2.8009
vt 4.132641E-08 2.7809
vt -0.1530733 2.7809
vt -0.1530733 2.8009
vt 4.132641E-08 2.8009
vt -0.1530734 2.7809
vt -0.2828427 2.7809
vt -0.2828427 2.8009
vt -0.1530734 2.8009
vt 6.357302E-09 2.7809
vt -0.1530734 2.7809
vt -0.1530734 2.8009
vt 6.357302E-09 2.8009
vt 0.1530734 2.7809
vt 6.357302E-09 2.7809
vt 6.357302E-09 2.8009
vt 0.1530734 2.8009
vt 0.2828428 2.7809
vt 0.1530734 2.7809
vt 0.1530734 2.8009
vt 0.2828428 2.8009
vt -0.1530734 2.7809
vt -0.2828427 2.7809
vt -0.2828427 2.8009
vt -0.1530734 2.8009
vt 2.384186E-08 2.7809
vt -0.1530734 2.7809
vt -0.1530734 2.8009
vt 2.384186E-08 2.8009
vt -1.112725E-08 2.8808
vt 0.1530733 2.850351
vt 0.2828428 2.763642
vt 0.3695518 2.633873
vt 0.4 2.4808
vt 0.3695518 2.327726
vt 0.2828428 2.197957
vt 0.1530734 2.111248
vt 2.384186E-08 2.0808
vt -0.1530734 2.111248
vt -0.2828427 2.197957
vt -0.3695518 2.327726
vt -0.4 2.4808
vt -0.3695518 2.633873
vt -0.2828427 2.763642
vt -0.1530733 2.850351
vt 0.1530733 2.111248
vt 0.2828428 2.197957
vt 0.3695518 2.327726
vt 0.4 2.4808
vt 0.3695518 2.633873
vt 0.2828428 2.763642
vt 0.1530734 2.850351
vt 2.384186E-08 2.8808
vt -0.1530734 2.850351
vt -0.2828427 2.763642
vt -0.3695518 2.633873
vt -0.4 2.4808
vt -0.3695518 2.327726
vt -0.2828427 2.197957
vt -0.1530733 2.111248
vt 5.881097E-08 2.0808
vt -0.05303298 2.427767
vt -0.07499997 2.4808
vt -0.05303299 2.533833
vt 1.728515E-08 2.555799
vt 0.05303303 2.533833
vt 0.07500003 2.4808
vt 0.05303303 2.427767
vt 2.384186E-08 2.4058
vt 0.2828428 2.7809
vt 0.1530733 2.7809
vt 0.1530733 2.8009
vt 0.2828428 2.8009
vn -0.9238795 0 0.3826834
vn -0.9238795 0 0.3826834
vn -0.9238795 0 0.3826834
vn -0.9238795 0 0.3826834
vn -0.3826835 0 0.9238795
vn -0.3826835 0 0.9238795
vn -0.3826835 0 0.9238795
vn -0.3826835 0 0.9238795
vn 0.3826835 0 0.9238795
vn 0.3826835 0 0.9238795
vn 0.3826835 0 0.9238795
vn 0.3826835 0 0.9238795
vn 0.9238795 0 0.3826834
vn 0.9238795 0 0.3826834
vn 0.9238795 0 0.3826834
vn 0.9238795 0 0.3826834
vn 0.9238795 0 -0.3826835
vn 0.9238795 0 -0.3826835
vn 0.9238795 0 -0.3826835
vn 0.9238795 0 -0.3826835
vn 0.3826834 0 -0.9238795
vn 0.3826834 0 -0.9238795
vn 0.3826834 0 -0.9238795
vn 0.3826834 0 -0.9238795
vn -0.3826835 0 -0.9238795
vn -0.3826835 0 -0.9238795
vn -0.3826835 0 -0.9238795
vn -0.3826835 0 -0.9238795
vn -0.9238796 0 -0.3826834
vn -0.9238796 0 -0.3826834
vn -0.9238796 0 -0.3826834
vn -0.9238796 0 -0.3826834
vn 0 -1 0
vn 0 -1 0
vn 0 -1 0
vn 0 -1 0
vn 0 -1 0
vn 0 -1 0
vn 0 -1 0
vn 0 -1 0
vn -0.9807853 0 0.1950904
vn -0.9807853 0 0.1950904
vn -0.9807853 0 0.1950904
vn -0.9807853 0 0.1950904
vn -0.8314695 0 0.5555703
vn -0.8314695 0 0.5555703
vn -0.8314695 0 0.5555703
vn -0.8314695 0 0.5555703
vn -0.5555702 0 0.8314696
vn -0.5555702 0 0.8314696
vn -0.5555702 0 0.8314696
vn -0.5555702 0 0.8314696
vn -0.1950901 0 0.9807853
vn -0.1950901 0 0.9807853
vn -0.1950901 0 0.9807853
vn -0.1950901 0 0.9807853
vn 0.1950902 0 0.9807853
vn 0.1950902 0 0.9807853
vn 0.1950902 0 0.9807853
vn 0.1950902 0 0.9807853
vn -0.1950904 0 -0.9807853
vn -0.1950904 0 -0.9807853
vn -0.1950904 0 -0.9807853
vn -0.1950904 0 -0.9807853
vn -0.5555702 0 -0.8314696
vn -0.5555702 0 -0.8314696
vn -0.5555702 0 -0.8314696
vn -0.5555702 0 -0.8314696
vn -0.8314697 0 -0.5555702
vn -0.8314697 0 -0.5555702
vn -0.8314697 0 -0.5555702
vn -0.8314697 0 -0.5555702
vn -0.9807853 0 -0.1950904
vn -0.9807853 0 -0.1950904
vn -0.9807853 0 -0.1950904
vn -0.9807853 0 -0.1950904
vn 0.8314695 0 0.5555703
vn 0.8314695 0 0.5555703
vn 0.8314695 0 0.5555703
vn 0.8314695 0 0.5555703
vn 0.9807853 0 0.1950904
vn 0.9807853 0 0.1950904
vn 0.9807853 0 0.1950904
vn 0.9807853 0 0.1950904
vn 0.9807853 0 -0.1950904
vn 0.9807853 0 -0.1950904
vn 0.9807853 0 -0.1950904
vn 0.9807853 0 -0.1950904
vn 0.8314697 0 -0.5555702
vn 0.8314697 0 -0.5555702
vn 0.8314697 0 -0.5555702
vn 0.8314697 0 -0.5555702
vn 0.5555702 0 -0.8314696
vn 0.5555702 0 -0.8314696
vn 0.5555702 0 -0.8314696
vn 0.5555702 0 -0.8314696
vn 0.1950904 0 -0.9807853
vn 0.1950904 0 -0.9807853
vn 0.1950904 0 -0.9807853
vn 0.1950904 0 -0.9807853
vn 0 1 0
vn 0 1 0
vn 0 1 0
vn 0 1 0
vn 0 1 0
vn 0 1 0
vn 0 1 0
vn 0 1 0
vn 0 1 0
vn 0 1 0
vn 0 1 0
vn 0 1 0
vn 0 1 0
vn 0 1 0
vn 0 1 0
vn 0 1 0
vn 0 -1 0
vn 0 -1 0
vn 0 -1 0
vn 0 -1 0
vn 0 -1 0
vn 0 -1 0
vn 0 -1 0
vn 0 -1 0
vn 0 -1 0
vn 0 -1 0
vn 0 -1 0
vn 0 -1 0
vn 0 -1 0
vn 0 -1 0
vn 0 -1 0
vn 0 -1 0
vn 0 -1 0
vn 0 -1 0
vn 0 -1 0
vn 0 -1 0
vn 0 -1 0
vn 0 -1 0
vn 0 -1 0
vn 0 -1 0
vn 0.5555702 0 0.8314696
vn 0.5555702 0 0.8314696
vn 0.5555702 0 0.8314696
vn 0.5555702 0 0.8314696
g RoundTable_Umodel_Mesh_0
f 35/35/35 34/34/34 33/33/33
f 36/36/36 35/35/35 33/33/33
f 37/37/37 36/36/36 33/33/33
f 38/38/38 37/37/37 33/33/33
f 39/39/39 38/38/38 33/33/33
f 40/40/40 39/39/39 33/33/33
f 43/43/43 42/42/42 41/41/41
f 44/44/44 43/43/43 41/41/41
f 47/47/47 46/46/46 45/45/45
f 48/48/48 47/47/47 45/45/45
f 51/51/51 50/50/50 49/49/49
f 52/52/52 51/51/51 49/49/49
f 55/55/55 54/54/54 53/53/53
f 56/56/56 55/55/55 53/53/53
f 59/59/59 58/58/58 57/57/57
f 60/60/60 59/59/59 57/57/57
f 63/63/63 62/62/62 61/61/61
f 64/64/64 63/63/63 61/61/61
f 67/67/67 66/66/66 65/65/65
f 68/68/68 67/67/67 65/65/65
f 71/71/71 70/70/70 69/69/69
f 72/72/72 71/71/71 69/69/69
f 75/75/75 74/74/74 73/73/73
f 76/76/76 75/75/75 73/73/73
f 79/79/79 78/78/78 77/77/77
f 80/80/80 79/79/79 77/77/77
f 83/83/83 82/82/82 81/81/81
f 84/84/84 83/83/83 81/81/81
f 87/87/87 86/86/86 85/85/85
f 88/88/88 87/87/87 85/85/85
f 91/91/91 90/90/90 89/89/89
f 92/92/92 91/91/91 89/89/89
f 95/95/95 94/94/94 93/93/93
f 96/96/96 95/95/95 93/93/93
f 99/99/99 98/98/98 97/97/97
f 100/100/100 99/99/99 97/97/97
f 103/103/103 102/102/102 101/101/101
f 104/104/104 103/103/103 101/101/101
f 105/105/105 104/104/104 101/101/101
f 106/106/106 105/105/105 101/101/101
f 107/107/107 106/106/106 101/101/101
f 108/108/108 107/107/107 101/101/101
f 109/109/109 108/108/108 101/101/101
f 110/110/110 109/109/109 101/101/101
f 111/111/111 110/110/110 101/101/101
f 112/112/112 111/111/111 101/101/101
f 113/113/113 112/112/112 101/101/101
f 114/114/114 113/113/113 101/101/101
f 115/115/115 114/114/114 101/101/101
f 116/116/116 115/115/115 101/101/101
f 134/134/134 124/124/124 135/135/135
f 135/135/135 124/124/124 136/136/136
f 136/136/136 124/124/124 137/137/137
f 137/137/137 124/124/124 123/123/123
f 137/137/137 123/123/123 138/138/138
f 138/138/138 123/123/123 132/132/132
f 132/132/132 123/123/123 122/122/122
f 132/132/132 122/122/122 117/117/117
f 117/117/117 122/122/122 121/121/121
f 117/117/117 121/121/121 118/118/118
f 118/118/118 121/121/121 120/120/120
f 118/118/118 120/120/120 119/119/119
f 128/128/128 127/127/127 126/126/126
f 128/128/128 126/126/126 129/129/129
f 129/129/129 126/126/126 125/125/125
f 129/129/129 125/125/125 130/130/130
f 130/130/130 125/125/125 124/124/124
f 130/130/130 124/124/124 134/134/134
f 130/130/130 134/134/134 131/131/131
f 131/131/131 134/134/134 133/133/133
f 131/131/131 133/133/133 140/140/140
f 131/131/131 140/140/140 139/139/139
f 139/139/139 138/138/138 132/132/132
f 131/131/131 139/139/139 132/132/132
f 143/143/143 142/142/142 141/141/141
f 144/144/144 143/143/143 141/141/141
g RoundTable_Umodel_Mesh_1
f 3/3/3 2/2/2 1/1/1
f 4/4/4 3/3/3 1/1/1
f 7/7/7 6/6/6 5/5/5
f 8/8/8 7/7/7 5/5/5
f 11/11/11 10/10/10 9/9/9
f 12/12/12 11/11/11 9/9/9
f 15/15/15 14/14/14 13/13/13
f 16/16/16 15/15/15 13/13/13
f 19/19/19 18/18/18 17/17/17
f 20/20/20 19/19/19 17/17/17
f 23/23/23 22/22/22 21/21/21
f 24/24/24 23/23/23 21/21/21
f 27/27/27 26/26/26 25/25/25
f 28/28/28 27/27/27 25/25/25
f 31/31/31 30/30/30 29/29/29
f 32/32/32 31/31/31 29/29/29
