g RoundDesk_Mesh
v -8.048924 0 2.2961
v -6.363961 0 6.363961
v 9.536743E-07 0 9
v 6.363961 0 6.363961
v 9 0 0
v 6.363961 0 -6.363961
v 0 0 -9
v -6.363961 0 -6.363961
v -8.048923 0 -2.296101
v -5.543277 0 -2.296101
v -2.2961 0 -5.543277
v 2.2961 0 -5.543277
v 5.543278 0 -2.2961
v 5.543276 0 2.296102
v 2.2961 0 5.543277
v -2.296099 0 5.543277
v -5.543277 0 2.2961
v -9.048923 3 -2.296101
v -7.071068 3 -7.071068
v -7.071068 4 -7.071068
v -9.048923 4 -2.296101
v 0 4 -10
v -7.071068 4 -7.071068
v -7.071068 3 -7.071068
v 0 3 -10
v 0 4 -10
v 0 3 -10
v 7.071068 3 -7.071068
v 7.071068 4 -7.071068
v 10 4 4.768372E-07
v 7.071068 4 -7.071068
v 7.071068 3 -7.071068
v 10 3 4.768372E-07
v 10 4 4.768372E-07
v 10 3 4.768372E-07
v 7.071068 3 7.071068
v 7.071068 4 7.071068
v 7.071068 4 7.071068
v 7.071068 3 7.071068
v 4.768372E-07 3 10
v 4.768372E-07 4 10
v 4.768372E-07 3 10
v -7.071068 3 7.071068
v -7.071068 4 7.071068
v 4.768372E-07 4 10
v -9.048923 4 2.296101
v -7.071068 4 7.071068
v -7.071068 3 7.071068
v -9.048924 3 2.2961
v -9.048923 3 2.296101
v -7.071068 3 7.071068
v 4.768372E-07 3 10
v 7.071068 3 7.071068
v 10 3 4.768372E-07
v 7.071068 3 -7.071068
v 0 3 -10
v -7.071068 3 -7.071068
v -9.048923 3 -2.296101
v -8.048923 3 -2.296101
v -6.363961 3 -6.363961
v 0 3 -9
v 6.363961 3 -6.363961
v 9 3 0
v 6.363961 3 6.363961
v 9.536743E-07 3 9
v -6.363961 3 6.363961
v -8.048924 3 2.2961
v -8.048923 0 -2.296101
v -6.363961 0 -6.363961
v -6.363961 3 -6.363961
v -8.048923 3 -2.296101
v 0 3 -9
v -6.363961 3 -6.363961
v -6.363961 0 -6.363961
v 0 0 -9
v 0 3 -9
v 0 0 -9
v 6.363961 0 -6.363961
v 6.363961 3 -6.363961
v 9 3 0
v 6.363961 3 -6.363961
v 6.363961 0 -6.363961
v 9 0 0
v 9 3 0
v 9 0 0
v 6.363961 0 6.363961
v 6.363961 3 6.363961
v 6.363961 3 6.363961
v 6.363961 0 6.363961
v 9.536743E-07 0 9
v 9.536743E-07 3 9
v 9.536743E-07 0 9
v -6.363961 0 6.363961
v -6.363961 3 6.363961
v 9.536743E-07 3 9
v -8.048924 3 2.2961
v -6.363961 3 6.363961
v -6.363961 0 6.363961
v -8.048924 0 2.2961
v 5.543277 4 2.296101
v 5.543277 4 -2.2961
v 2.296101 4 -5.543277
v -2.2961 4 -5.543277
v -5.543277 4 -2.296101
v -9.048923 4 -2.296101
v -7.071068 4 -7.071068
v 0 4 -10
v 7.071068 4 -7.071068
v 10 4 4.768372E-07
v 7.071068 4 7.071068
v 4.768372E-07 4 10
v -7.071068 4 7.071068
v -9.048923 4 2.296101
v -5.543277 4 2.2961
v -2.2961 4 5.543277
v 2.296101 4 5.543277
v -5.543277 4 -2.296101
v -5.543277 0 -2.296101
v -8.048923 0 -2.296101
v -8.048923 3 -2.296101
v -9.048923 3 -2.296101
v -9.048923 4 -2.296101
v -2.2961 4 -5.543277
v -2.2961 0 -5.543277
v -5.543277 0 -2.296101
v -5.543277 4 -2.296101
v 2.296101 4 -5.543277
v 2.2961 0 -5.543277
v -2.2961 0 -5.543277
v -2.2961 4 -5.543277
v 5.543277 4 -2.2961
v 5.543278 0 -2.2961
v 2.2961 0 -5.543277
v 2.296101 4 -5.543277
v 5.543277 4 2.296101
v 5.543276 0 2.296102
v 5.543278 0 -2.2961
v 5.543277 4 -2.2961
v 2.296101 4 5.543277
v 2.2961 0 5.543277
v 5.543276 0 2.296102
v 5.543277 4 2.296101
v -2.2961 4 5.543277
v -2.296099 0 5.543277
v 2.2961 0 5.543277
v 2.296101 4 5.543277
v -5.543277 4 2.2961
v -5.543277 0 2.2961
v -2.296099 0 5.543277
v -2.2961 4 5.543277
v -8.048924 0 2.2961
v -5.543277 0 2.2961
v -5.543277 4 2.2961
v -9.048923 4 2.296101
v -9.048924 3 2.2961
v -8.048924 3 2.2961
vt -0.7896072 1.634676
vt -0.6211109 1.22789
vt 0.01528535 0.9642857
vt 0.6516814 1.22789
vt 0.9152852 1.864286
vt 0.6516814 2.500682
vt 0.01528525 2.764286
vt -0.6211109 2.500682
vt -0.7896071 2.093896
vt -0.5390425 2.093896
vt -0.2143247 2.418613
vt 0.2448952 2.418613
vt 0.5696131 2.093896
vt 0.5696129 1.634676
vt 0.2448953 1.309958
vt -0.2143247 1.309958
vt -0.5390425 1.634676
vt -0.2143248 2.164286
vt -0.6918215 2.164286
vt -0.6918215 2.264286
vt -0.2143248 2.264286
vt 0.01528525 2.264286
vt 0.7223921 2.264286
vt 0.7223921 2.164286
vt 0.01528525 2.164286
vt 0.01528525 2.264286
vt 0.01528525 2.164286
vt -0.6918215 2.164286
vt -0.6918215 2.264286
vt 0.0152852 2.264286
vt 0.7223921 2.264286
vt 0.7223921 2.164286
vt 0.0152852 2.164286
vt 0.0152852 2.264286
vt 0.0152852 2.164286
vt -0.6918215 2.164286
vt -0.6918215 2.264286
vt 0.7223921 2.264286
vt 0.7223921 2.164286
vt 0.0152853 2.164286
vt 0.0152853 2.264286
vt 0.0152853 2.164286
vt -0.6918215 2.164286
vt -0.6918215 2.264286
vt 0.0152853 2.264286
vt 0.2448953 2.264286
vt 0.7223921 2.264286
vt 0.7223921 2.164286
vt 0.2448953 2.164286
vt -0.8896071 1.634676
vt -0.6918215 1.157179
vt 0.0152853 0.8642857
vt 0.7223921 1.157179
vt 1.015285 1.864286
vt 0.7223921 2.571393
vt 0.01528525 2.864286
vt -0.6918215 2.571393
vt -0.8896071 2.093896
vt -0.7896071 2.093896
vt -0.6211109 2.500682
vt 0.01528525 2.764286
vt 0.6516814 2.500682
vt 0.9152852 1.864286
vt 0.6516814 1.22789
vt 0.01528535 0.9642857
vt -0.6211109 1.22789
vt -0.7896072 1.634676
vt -0.2143248 1.864286
vt -0.6211109 1.864286
vt -0.6211109 2.164286
vt -0.2143248 2.164286
vt 0.01528525 2.164286
vt 0.6516814 2.164286
vt 0.6516814 1.864286
vt 0.01528525 1.864286
vt 0.01528525 2.164286
vt 0.01528525 1.864286
vt -0.6211108 1.864286
vt -0.6211108 2.164286
vt 0.01528525 2.164286
vt 0.6516814 2.164286
vt 0.6516814 1.864286
vt 0.01528525 1.864286
vt 0.01528525 2.164286
vt 0.01528525 1.864286
vt -0.6211108 1.864286
vt -0.6211108 2.164286
vt 0.6516814 2.164286
vt 0.6516814 1.864286
vt 0.01528535 1.864286
vt 0.01528535 2.164286
vt 0.01528535 1.864286
vt -0.6211109 1.864286
vt -0.6211109 2.164286
vt 0.01528535 2.164286
vt 0.2448953 2.164286
vt 0.6516814 2.164286
vt 0.6516814 1.864286
vt 0.2448953 1.864286
vt -0.5390424 2.093896
vt -0.5390425 1.634676
vt -0.2143248 1.309958
vt 0.2448952 1.309958
vt 0.569613 1.634676
vt 0.9201776 1.634676
vt 0.7223921 1.157179
vt 0.01528525 0.8642857
vt -0.6918215 1.157179
vt -0.9847147 1.864286
vt -0.6918215 2.571393
vt 0.0152852 2.864286
vt 0.7223921 2.571393
vt 0.9201776 2.093896
vt 0.569613 2.093896
vt 0.2448953 2.418613
vt -0.2143248 2.418613
vt -0.5390425 2.264286
vt -0.5390425 1.864286
vt -0.7896071 1.864286
vt -0.7896071 2.164286
vt -0.8896071 2.164286
vt -0.8896071 2.264286
vt -0.2143247 2.264286
vt -0.2143247 1.864286
vt -0.5390425 1.864286
vt -0.5390425 2.264286
vt 0.2448953 2.264286
vt 0.2448952 1.864286
vt -0.2143247 1.864286
vt -0.2143247 2.264286
vt 0.569613 2.264286
vt 0.5696131 1.864286
vt 0.2448952 1.864286
vt 0.2448953 2.264286
vt 0.2448954 2.264286
vt 0.2448954 1.864286
vt -0.2143247 1.864286
vt -0.2143248 2.264286
vt -0.2143248 2.264286
vt -0.2143248 1.864286
vt -0.5390424 1.864286
vt -0.5390424 2.264286
vt 0.2448953 2.264286
vt 0.2448952 1.864286
vt -0.2143248 1.864286
vt -0.2143248 2.264286
vt 0.569613 2.264286
vt 0.569613 1.864286
vt 0.2448952 1.864286
vt 0.2448953 2.264286
vt 0.8201777 1.864286
vt 0.569613 1.864286
vt 0.569613 2.264286
vt 0.9201776 2.264286
vt 0.9201777 2.164286
vt 0.8201777 2.164286
vn 0 -1 0
vn 0 -1 0
vn 0 -1 0
vn 0 -1 0
vn 0 -1 0
vn 0 -1 0
vn 0 -1 0
vn 0 -1 0
vn 0 -1 0
vn 0 -1 0
vn 0 -1 0
vn 0 -1 0
vn 0 -1 0
vn 0 -1 0
vn 0 -1 0
vn 0 -1 0
vn 0 -1 0
vn -0.9238796 2.580624E-07 -0.3826834
vn -0.9238796 2.580624E-07 -0.3826834
vn -0.9238796 2.580624E-07 -0.3826834
vn -0.9238796 2.580624E-07 -0.3826834
vn -0.3826834 0 -0.9238795
vn -0.3826834 0 -0.9238795
vn -0.3826834 0 -0.9238795
vn -0.3826834 0 -0.9238795
vn 0.3826834 0 -0.9238795
vn 0.3826834 0 -0.9238795
vn 0.3826834 0 -0.9238795
vn 0.3826834 0 -0.9238795
vn 0.9238796 0 -0.3826834
vn 0.9238796 0 -0.3826834
vn 0.9238796 0 -0.3826834
vn 0.9238796 0 -0.3826834
vn 0.9238795 0 0.3826835
vn 0.9238795 0 0.3826835
vn 0.9238795 0 0.3826835
vn 0.9238795 0 0.3826835
vn 0.3826835 0 0.9238795
vn 0.3826835 0 0.9238795
vn 0.3826835 0 0.9238795
vn 0.3826835 0 0.9238795
vn -0.3826834 0 0.9238796
vn -0.3826834 0 0.9238796
vn -0.3826834 0 0.9238796
vn -0.3826834 0 0.9238796
vn -0.9238796 0 0.3826834
vn -0.9238796 0 0.3826834
vn -0.9238796 0 0.3826834
vn -0.9238796 0 0.3826834
vn 0 -1 0
vn 0 -1 0
vn 0 -1 0
vn 0 -1 0
vn 0 -1 0
vn 0 -1 0
vn 0 -1 0
vn 0 -1 0
vn 0 -1 0
vn 0 -1 0
vn 0 -1 0
vn 0 -1 0
vn 0 -1 0
vn 0 -1 0
vn 0 -1 0
vn 0 -1 0
vn 0 -1 0
vn 0 -1 0
vn -0.9238796 0 -0.3826834
vn -0.9238796 0 -0.3826834
vn -0.9238796 0 -0.3826834
vn -0.9238796 0 -0.3826834
vn -0.3826834 0 -0.9238796
vn -0.3826834 0 -0.9238796
vn -0.3826834 0 -0.9238796
vn -0.3826834 0 -0.9238796
vn 0.3826834 0 -0.9238796
vn 0.3826834 0 -0.9238796
vn 0.3826834 0 -0.9238796
vn 0.3826834 0 -0.9238796
vn 0.9238796 0 -0.3826835
vn 0.9238796 0 -0.3826835
vn 0.9238796 0 -0.3826835
vn 0.9238796 0 -0.3826835
vn 0.9238795 0 0.3826835
vn 0.9238795 0 0.3826835
vn 0.9238795 0 0.3826835
vn 0.9238795 0 0.3826835
vn 0.3826835 0 0.9238795
vn 0.3826835 0 0.9238795
vn 0.3826835 0 0.9238795
vn 0.3826835 0 0.9238795
vn -0.3826833 0 0.9238796
vn -0.3826833 0 0.9238796
vn -0.3826833 0 0.9238796
vn -0.3826833 0 0.9238796
vn -0.9238796 0 0.3826834
vn -0.9238796 0 0.3826834
vn -0.9238796 0 0.3826834
vn -0.9238796 0 0.3826834
vn 0 1 0
vn 0 1 0
vn 0 1 0
vn 0 1 0
vn 0 1 0
vn 0 1 0
vn 0 1 0
vn 0 1 0
vn 0 1 0
vn 0 1 0
vn 0 1 0
vn 0 1 0
vn 0 1 0
vn 0 1 0
vn 0 1 0
vn 0 1 0
vn 0 1 0
vn 0 0 1
vn 0 0 1
vn 0 0 1
vn 0 0 1
vn 0 0 1
vn 0 0 1
vn 0.7071066 0 0.7071069
vn 0.7071066 0 0.7071069
vn 0.7071066 0 0.7071069
vn 0.7071066 0 0.7071069
vn -1.038363E-07 -1.192093E-07 1
vn -1.038363E-07 -1.192093E-07 1
vn -1.038363E-07 -1.192093E-07 1
vn -1.038363E-07 -1.192093E-07 1
vn -0.7071067 -1.264405E-07 0.7071069
vn -0.7071067 -1.264405E-07 0.7071069
vn -0.7071067 -1.264405E-07 0.7071069
vn -0.7071067 -1.264405E-07 0.7071069
vn -1 -2.384186E-07 -1.038363E-07
vn -1 -2.384186E-07 -1.038363E-07
vn -1 -2.384186E-07 -1.038363E-07
vn -1 -2.384186E-07 -1.038363E-07
vn -0.7071067 -1.421085E-14 -0.7071068
vn -0.7071067 -1.421085E-14 -0.7071068
vn -0.7071067 -1.421085E-14 -0.7071068
vn -0.7071067 -1.421085E-14 -0.7071068
vn -1.038363E-07 -1.192093E-07 -1
vn -1.038363E-07 -1.192093E-07 -1
vn -1.038363E-07 -1.192093E-07 -1
vn -1.038363E-07 -1.192093E-07 -1
vn 0.7071067 1.264405E-07 -0.7071069
vn 0.7071067 1.264405E-07 -0.7071069
vn 0.7071067 1.264405E-07 -0.7071069
vn 0.7071067 1.264405E-07 -0.7071069
vn 0 0 -1
vn 0 0 -1
vn 0 0 -1
vn 0 0 -1
vn 0 0 -1
vn 0 0 -1
g RoundDesk_Mesh_0
f 9/9/9 8/8/8 10/10/10
f 10/10/10 8/8/8 11/11/11
f 11/11/11 8/8/8 7/7/7
f 11/11/11 7/7/7 12/12/12
f 12/12/12 7/7/7 6/6/6
f 12/12/12 6/6/6 13/13/13
f 13/13/13 6/6/6 14/14/14
f 14/14/14 6/6/6 4/4/4
f 4/4/4 6/6/6 5/5/5
f 1/1/1 17/17/17 2/2/2
f 2/2/2 17/17/17 16/16/16
f 2/2/2 16/16/16 3/3/3
f 3/3/3 16/16/16 15/15/15
f 3/3/3 15/15/15 14/14/14
f 3/3/3 14/14/14 4/4/4
f 20/20/20 19/19/19 18/18/18
f 21/21/21 20/20/20 18/18/18
f 24/24/24 23/23/23 22/22/22
f 25/25/25 24/24/24 22/22/22
f 28/28/28 27/27/27 26/26/26
f 29/29/29 28/28/28 26/26/26
f 32/32/32 31/31/31 30/30/30
f 33/33/33 32/32/32 30/30/30
f 36/36/36 35/35/35 34/34/34
f 37/37/37 36/36/36 34/34/34
f 40/40/40 39/39/39 38/38/38
f 41/41/41 40/40/40 38/38/38
f 44/44/44 43/43/43 42/42/42
f 45/45/45 44/44/44 42/42/42
f 48/48/48 47/47/47 46/46/46
f 49/49/49 48/48/48 46/46/46
f 58/58/58 57/57/57 59/59/59
f 59/59/59 57/57/57 60/60/60
f 60/60/60 57/57/57 56/56/56
f 60/60/60 56/56/56 61/61/61
f 61/61/61 56/56/56 62/62/62
f 62/62/62 56/56/56 55/55/55
f 62/62/62 55/55/55 63/63/63
f 53/53/53 63/63/63 54/54/54
f 63/63/63 55/55/55 54/54/54
f 50/50/50 67/67/67 51/51/51
f 51/51/51 67/67/67 66/66/66
f 51/51/51 66/66/66 65/65/65
f 51/51/51 65/65/65 52/52/52
f 52/52/52 65/65/65 64/64/64
f 64/64/64 63/63/63 53/53/53
f 52/52/52 64/64/64 53/53/53
f 70/70/70 69/69/69 68/68/68
f 71/71/71 70/70/70 68/68/68
f 74/74/74 73/73/73 72/72/72
f 75/75/75 74/74/74 72/72/72
f 78/78/78 77/77/77 76/76/76
f 79/79/79 78/78/78 76/76/76
f 82/82/82 81/81/81 80/80/80
f 83/83/83 82/82/82 80/80/80
f 86/86/86 85/85/85 84/84/84
f 87/87/87 86/86/86 84/84/84
f 90/90/90 89/89/89 88/88/88
f 91/91/91 90/90/90 88/88/88
f 94/94/94 93/93/93 92/92/92
f 95/95/95 94/94/94 92/92/92
f 98/98/98 97/97/97 96/96/96
f 99/99/99 98/98/98 96/96/96
f 113/113/113 112/112/112 114/114/114
f 114/114/114 112/112/112 115/115/115
f 115/115/115 112/112/112 111/111/111
f 115/115/115 111/111/111 116/116/116
f 116/116/116 111/111/111 100/100/100
f 100/100/100 111/111/111 110/110/110
f 100/100/100 110/110/110 101/101/101
f 101/101/101 110/110/110 108/108/108
f 108/108/108 110/110/110 109/109/109
f 106/106/106 105/105/105 104/104/104
f 106/106/106 104/104/104 103/103/103
f 106/106/106 103/103/103 107/107/107
f 107/107/107 103/103/103 102/102/102
f 107/107/107 102/102/102 101/101/101
f 107/107/107 101/101/101 108/108/108
f 119/119/119 118/118/118 120/120/120
f 120/120/120 118/118/118 117/117/117
f 120/120/120 117/117/117 121/121/121
f 121/121/121 117/117/117 122/122/122
f 125/125/125 124/124/124 123/123/123
f 126/126/126 125/125/125 123/123/123
f 129/129/129 128/128/128 127/127/127
f 130/130/130 129/129/129 127/127/127
f 133/133/133 132/132/132 131/131/131
f 134/134/134 133/133/133 131/131/131
f 137/137/137 136/136/136 135/135/135
f 138/138/138 137/137/137 135/135/135
f 141/141/141 140/140/140 139/139/139
f 142/142/142 141/141/141 139/139/139
f 145/145/145 144/144/144 143/143/143
f 146/146/146 145/145/145 143/143/143
f 149/149/149 148/148/148 147/147/147
f 150/150/150 149/149/149 147/147/147
f 152/152/152 151/151/151 156/156/156
f 156/156/156 154/154/154 153/153/153
f 152/152/152 156/156/156 153/153/153
f 155/155/155 154/154/154 156/156/156
