g Sphere
v 0 2 0
v 0.25 1.866025 -0.4330127
v 0.5 1.866025 4.371139E-08
v 0 2 0
v -0.25 1.866025 -0.4330127
v 0.25 1.866025 -0.4330127
v 0 2 0
v -0.5 1.866025 0
v -0.25 1.866025 -0.4330127
v 0 2 0
v -0.25 1.866025 0.4330127
v -0.5 1.866025 0
v 0 2 0
v 0.25 1.866025 0.4330127
v -0.25 1.866025 0.4330127
v 0 2 0
v 0.5 1.866025 -4.371139E-08
v 0.25 1.866025 0.4330127
v 0.8660254 1.5 7.571035E-08
v 0.5 1.866025 4.371139E-08
v 0.25 1.866025 -0.4330127
v 0.4330128 1.5 -0.75
v 0.4330128 1.5 -0.75
v 0.25 1.866025 -0.4330127
v -0.25 1.866025 -0.4330127
v -0.4330127 1.5 -0.7500001
v -0.4330127 1.5 -0.7500001
v -0.25 1.866025 -0.4330127
v -0.5 1.866025 0
v -0.8660254 1.5 0
v -0.8660254 1.5 0
v -0.5 1.866025 0
v -0.25 1.866025 0.4330127
v -0.4330127 1.5 0.7500001
v -0.4330127 1.5 0.7500001
v -0.25 1.866025 0.4330127
v 0.25 1.866025 0.4330127
v 0.4330128 1.5 0.75
v 0.4330128 1.5 0.75
v 0.25 1.866025 0.4330127
v 0.5 1.866025 -4.371139E-08
v 0.8660254 1.5 -7.571035E-08
v 1 0.9999999 8.742278E-08
v 0.8660254 1.5 7.571035E-08
v 0.4330128 1.5 -0.75
v 0.5000001 0.9999999 -0.8660254
v 0.5000001 0.9999999 -0.8660254
v 0.4330128 1.5 -0.75
v -0.4330127 1.5 -0.7500001
v -0.5 0.9999999 -0.8660254
v -0.5 0.9999999 -0.8660254
v -0.4330127 1.5 -0.7500001
v -0.8660254 1.5 0
v -1 0.9999999 0
v -1 0.9999999 0
v -0.8660254 1.5 0
v -0.4330127 1.5 0.7500001
v -0.5 0.9999999 0.8660254
v -0.5 0.9999999 0.8660254
v -0.4330127 1.5 0.7500001
v 0.4330128 1.5 0.75
v 0.5000001 0.9999999 0.8660254
v 0.5000001 0.9999999 0.8660254
v 0.4330128 1.5 0.75
v 0.8660254 1.5 -7.571035E-08
v 1 0.9999999 -8.742278E-08
v 0.8660254 0.4999999 7.571035E-08
v 1 0.9999999 8.742278E-08
v 0.5000001 0.9999999 -0.8660254
v 0.4330128 0.4999999 -0.75
v 0.4330128 0.4999999 -0.75
v 0.5000001 0.9999999 -0.8660254
v -0.5 0.9999999 -0.8660254
v -0.4330127 0.4999999 -0.75
v -0.4330127 0.4999999 -0.75
v -0.5 0.9999999 -0.8660254
v -1 0.9999999 0
v -0.8660254 0.4999999 0
v -0.8660254 0.4999999 0
v -1 0.9999999 0
v -0.5 0.9999999 0.8660254
v -0.4330127 0.4999999 0.75
v -0.4330127 0.4999999 0.75
v -0.5 0.9999999 0.8660254
v 0.5000001 0.9999999 0.8660254
v 0.4330128 0.4999999 0.75
v 0.4330128 0.4999999 0.75
v 0.5000001 0.9999999 0.8660254
v 1 0.9999999 -8.742278E-08
v 0.8660254 0.4999999 -7.571035E-08
v 0.5000001 0.1339746 4.371139E-08
v 0.8660254 0.4999999 7.571035E-08
v 0.4330128 0.4999999 -0.75
v 0.2500001 0.1339746 -0.4330128
v 0.2500001 0.1339746 -0.4330128
v 0.4330128 0.4999999 -0.75
v -0.4330127 0.4999999 -0.75
v -0.25 0.1339746 -0.4330128
v -0.25 0.1339746 -0.4330128
v -0.4330127 0.4999999 -0.75
v -0.8660254 0.4999999 0
v -0.5000001 0.1339746 0
v -0.5000001 0.1339746 0
v -0.8660254 0.4999999 0
v -0.4330127 0.4999999 0.75
v -0.25 0.1339746 0.4330128
v -0.25 0.1339746 0.4330128
v -0.4330127 0.4999999 0.75
v 0.4330128 0.4999999 0.75
v 0.2500001 0.1339746 0.4330128
v 0.2500001 0.1339746 0.4330128
v 0.4330128 0.4999999 0.75
v 0.8660254 0.4999999 -7.571035E-08
v 0.5000001 0.1339746 -4.371139E-08
v 0.5000001 0.1339746 4.371139E-08
v 0.2500001 0.1339746 -0.4330128
v -4.371139E-08 0 7.571035E-08
v 0.2500001 0.1339746 -0.4330128
v -0.25 0.1339746 -0.4330128
v 4.371138E-08 0 7.571035E-08
v -0.25 0.1339746 -0.4330128
v -0.5000001 0.1339746 0
v 8.742278E-08 0 0
v -0.5000001 0.1339746 0
v -0.25 0.1339746 0.4330128
v 4.371138E-08 0 -7.571035E-08
v -0.25 0.1339746 0.4330128
v 0.2500001 0.1339746 0.4330128
v -4.371139E-08 0 -7.571035E-08
v 0.2500001 0.1339746 0.4330128
v 0.5000001 0.1339746 -4.371139E-08
v -8.742278E-08 0 7.642742E-15
vt 0 0
vt -0.25 -0.4330127
vt -0.5 2.980232E-08
vt 0 0
vt 0.25 -0.4330127
vt -0.25 -0.4330127
vt 0 0
vt 0.5 0
vt 0.25 -0.4330127
vt 0 0
vt 0.25 0.4330127
vt 0.5 0
vt 0 0
vt -0.25 0.4330127
vt 0.25 0.4330127
vt 0 0
vt -0.5 -5.960464E-08
vt -0.25 0.4330127
vt -5.960464E-08 1.5
vt -5.960464E-08 1.866025
vt 0.4330127 1.866025
vt 0.75 1.5
vt -0.4330128 1.5
vt -0.25 1.866025
vt 0.25 1.866025
vt 0.4330127 1.5
vt 0.4330127 -0.75
vt 0.25 -0.4330127
vt 0.5 0
vt 0.8660254 0
vt 0.8660254 0
vt 0.5 0
vt 0.25 0.4330127
vt 0.4330127 0.7500001
vt -0.4330127 1.5
vt -0.25 1.866025
vt 0.25 1.866025
vt 0.4330128 1.5
vt -0.75 1.5
vt -0.4330127 1.866025
vt 2.980232E-08 1.866025
vt 8.940697E-08 1.5
vt -5.960464E-08 0.9999999
vt -5.960464E-08 1.5
vt 0.75 1.5
vt 0.8660254 0.9999999
vt -0.5 0.9999999
vt -0.4330128 1.5
vt 0.4330127 1.5
vt 0.5 0.9999999
vt -0.8660254 0.9999999
vt -0.75 1.5
vt 0 1.5
vt 0 0.9999999
vt 0 0.9999999
vt 0 1.5
vt 0.7500001 1.5
vt 0.8660254 0.9999999
vt -0.5 0.9999999
vt -0.4330127 1.5
vt 0.4330128 1.5
vt 0.5000001 0.9999999
vt -0.8660254 0.9999999
vt -0.75 1.5
vt 8.940697E-08 1.5
vt 8.940697E-08 0.9999999
vt -5.960464E-08 0.4999999
vt -5.960464E-08 0.9999999
vt 0.8660254 0.9999999
vt 0.75 0.4999999
vt -0.4330127 0.4999999
vt -0.5 0.9999999
vt 0.5 0.9999999
vt 0.4330127 0.4999999
vt -0.75 0.4999999
vt -0.8660254 0.9999999
vt 0 0.9999999
vt 0 0.4999999
vt 0 0.4999999
vt 0 0.9999999
vt 0.8660254 0.9999999
vt 0.75 0.4999999
vt -0.4330127 0.4999999
vt -0.5 0.9999999
vt 0.5000001 0.9999999
vt 0.4330128 0.4999999
vt -0.75 0.4999999
vt -0.8660254 0.9999999
vt 8.940697E-08 0.9999999
vt 8.940697E-08 0.4999999
vt -5.960464E-08 0.1339746
vt -5.960464E-08 0.4999999
vt 0.75 0.4999999
vt 0.4330128 0.1339746
vt -0.2500001 0.1339746
vt -0.4330127 0.4999999
vt 0.4330127 0.4999999
vt 0.25 0.1339746
vt -0.25 0.4330128
vt -0.4330127 0.75
vt -0.8660254 0
vt -0.5 0
vt -0.5 0
vt -0.8660254 0
vt -0.4330127 -0.75
vt -0.25 -0.4330128
vt -0.25 0.1339746
vt -0.4330127 0.4999999
vt 0.4330128 0.4999999
vt 0.2500001 0.1339746
vt -0.4330127 0.1339746
vt -0.75 0.4999999
vt 8.940697E-08 0.4999999
vt 2.980232E-08 0.1339746
vt 0.5000001 -5.960464E-08
vt 0.2500001 0.4330128
vt -5.960464E-08 -5.960464E-08
vt 0.2500001 0.4330128
vt -0.25 0.4330128
vt 2.980232E-08 -5.960464E-08
vt -0.25 0.4330128
vt -0.5 0
vt 8.940697E-08 0
vt -0.5 0
vt -0.25 -0.4330128
vt 2.980232E-08 8.940697E-08
vt -0.25 -0.4330128
vt 0.2500001 -0.4330127
vt -5.960464E-08 8.940697E-08
vt 0.2500001 -0.4330127
vt 0.5000001 2.980232E-08
vt -5.960464E-08 0
vn 0.2559769 0.955319 -0.1477883
vn 0.2559769 0.955319 -0.1477883
vn 0.2559769 0.955319 -0.1477883
vn 1.761774E-08 0.955319 -0.2955766
vn 1.761774E-08 0.955319 -0.2955766
vn 1.761774E-08 0.955319 -0.2955766
vn -0.2559769 0.955319 -0.1477883
vn -0.2559769 0.955319 -0.1477883
vn -0.2559769 0.955319 -0.1477883
vn -0.2559769 0.955319 0.1477883
vn -0.2559769 0.955319 0.1477883
vn -0.2559769 0.955319 0.1477883
vn 1.761774E-08 0.955319 0.2955766
vn 1.761774E-08 0.955319 0.2955766
vn 1.761774E-08 0.955319 0.2955766
vn 0.2559769 0.955319 0.1477883
vn 0.2559769 0.955319 0.1477883
vn 0.2559769 0.955319 0.1477883
vn 0.6546537 0.6546537 -0.3779644
vn 0.6546537 0.6546537 -0.3779644
vn 0.6546537 0.6546537 -0.3779644
vn 0.6546537 0.6546537 -0.3779644
vn 5.20272E-08 0.6546537 -0.7559289
vn 5.20272E-08 0.6546537 -0.7559289
vn 5.20272E-08 0.6546537 -0.7559289
vn 5.20272E-08 0.6546537 -0.7559289
vn -0.6546537 0.6546537 -0.3779645
vn -0.6546537 0.6546537 -0.3779645
vn -0.6546537 0.6546537 -0.3779645
vn -0.6546537 0.6546537 -0.3779645
vn -0.6546537 0.6546537 0.3779645
vn -0.6546537 0.6546537 0.3779645
vn -0.6546537 0.6546537 0.3779645
vn -0.6546537 0.6546537 0.3779645
vn 5.20272E-08 0.6546537 0.7559289
vn 5.20272E-08 0.6546537 0.7559289
vn 5.20272E-08 0.6546537 0.7559289
vn 5.20272E-08 0.6546537 0.7559289
vn 0.6546537 0.6546537 0.3779644
vn 0.6546537 0.6546537 0.3779644
vn 0.6546537 0.6546537 0.3779644
vn 0.6546537 0.6546537 0.3779644
vn 0.84361 0.2260445 -0.4870584
vn 0.84361 0.2260445 -0.4870584
vn 0.84361 0.2260445 -0.4870584
vn 0.84361 0.2260445 -0.4870584
vn 5.80619E-08 0.2260446 -0.974117
vn 5.80619E-08 0.2260446 -0.974117
vn 5.80619E-08 0.2260446 -0.974117
vn 5.80619E-08 0.2260446 -0.974117
vn -0.84361 0.2260446 -0.4870585
vn -0.84361 0.2260446 -0.4870585
vn -0.84361 0.2260446 -0.4870585
vn -0.84361 0.2260446 -0.4870585
vn -0.84361 0.2260446 0.4870585
vn -0.84361 0.2260446 0.4870585
vn -0.84361 0.2260446 0.4870585
vn -0.84361 0.2260446 0.4870585
vn 5.80619E-08 0.2260446 0.974117
vn 5.80619E-08 0.2260446 0.974117
vn 5.80619E-08 0.2260446 0.974117
vn 5.80619E-08 0.2260446 0.974117
vn 0.84361 0.2260445 0.4870584
vn 0.84361 0.2260445 0.4870584
vn 0.84361 0.2260445 0.4870584
vn 0.84361 0.2260445 0.4870584
vn 0.84361 -0.2260447 -0.4870584
vn 0.84361 -0.2260447 -0.4870584
vn 0.84361 -0.2260447 -0.4870584
vn 0.84361 -0.2260447 -0.4870584
vn 5.80619E-08 -0.2260446 -0.974117
vn 5.80619E-08 -0.2260446 -0.974117
vn 5.80619E-08 -0.2260446 -0.974117
vn 5.80619E-08 -0.2260446 -0.974117
vn -0.84361 -0.2260447 -0.4870585
vn -0.84361 -0.2260447 -0.4870585
vn -0.84361 -0.2260447 -0.4870585
vn -0.84361 -0.2260447 -0.4870585
vn -0.84361 -0.2260447 0.4870585
vn -0.84361 -0.2260447 0.4870585
vn -0.84361 -0.2260447 0.4870585
vn -0.84361 -0.2260447 0.4870585
vn 5.80619E-08 -0.2260446 0.974117
vn 5.80619E-08 -0.2260446 0.974117
vn 5.80619E-08 -0.2260446 0.974117
vn 5.80619E-08 -0.2260446 0.974117
vn 0.84361 -0.2260447 0.4870584
vn 0.84361 -0.2260447 0.4870584
vn 0.84361 -0.2260447 0.4870584
vn 0.84361 -0.2260447 0.4870584
vn 0.6546537 -0.6546537 -0.3779644
vn 0.6546537 -0.6546537 -0.3779644
vn 0.6546537 -0.6546537 -0.3779644
vn 0.6546537 -0.6546537 -0.3779644
vn 0 -0.6546537 -0.7559289
vn 0 -0.6546537 -0.7559289
vn 0 -0.6546537 -0.7559289
vn 0 -0.6546537 -0.7559289
vn -0.6546537 -0.6546537 -0.3779645
vn -0.6546537 -0.6546537 -0.3779645
vn -0.6546537 -0.6546537 -0.3779645
vn -0.6546537 -0.6546537 -0.3779645
vn -0.6546537 -0.6546537 0.3779645
vn -0.6546537 -0.6546537 0.3779645
vn -0.6546537 -0.6546537 0.3779645
vn -0.6546537 -0.6546537 0.3779645
vn 0 -0.6546537 0.7559289
vn 0 -0.6546537 0.7559289
vn 0 -0.6546537 0.7559289
vn 0 -0.6546537 0.7559289
vn 0.6546537 -0.6546537 0.3779644
vn 0.6546537 -0.6546537 0.3779644
vn 0.6546537 -0.6546537 0.3779644
vn 0.6546537 -0.6546537 0.3779644
vn 0.2559769 -0.955319 -0.1477883
vn 0.2559769 -0.955319 -0.1477883
vn 0.2559769 -0.955319 -0.1477883
vn 1.761774E-08 -0.955319 -0.2955767
vn 1.761774E-08 -0.955319 -0.2955767
vn 1.761774E-08 -0.955319 -0.2955767
vn -0.2559769 -0.955319 -0.1477883
vn -0.2559769 -0.955319 -0.1477883
vn -0.2559769 -0.955319 -0.1477883
vn -0.2559769 -0.955319 0.1477883
vn -0.2559769 -0.955319 0.1477883
vn -0.2559769 -0.955319 0.1477883
vn 1.761774E-08 -0.955319 0.2955767
vn 1.761774E-08 -0.955319 0.2955767
vn 1.761774E-08 -0.955319 0.2955767
vn 0.2559769 -0.955319 0.1477883
vn 0.2559769 -0.955319 0.1477883
vn 0.2559769 -0.955319 0.1477883
g Sphere_0
f 3/3/3 2/2/2 1/1/1
f 6/6/6 5/5/5 4/4/4
f 9/9/9 8/8/8 7/7/7
f 12/12/12 11/11/11 10/10/10
f 15/15/15 14/14/14 13/13/13
f 18/18/18 17/17/17 16/16/16
f 21/21/21 20/20/20 19/19/19
f 22/22/22 21/21/21 19/19/19
f 25/25/25 24/24/24 23/23/23
f 26/26/26 25/25/25 23/23/23
f 29/29/29 28/28/28 27/27/27
f 30/30/30 29/29/29 27/27/27
f 33/33/33 32/32/32 31/31/31
f 34/34/34 33/33/33 31/31/31
f 37/37/37 36/36/36 35/35/35
f 38/38/38 37/37/37 35/35/35
f 41/41/41 40/40/40 39/39/39
f 42/42/42 41/41/41 39/39/39
f 45/45/45 44/44/44 43/43/43
f 46/46/46 45/45/45 43/43/43
f 49/49/49 48/48/48 47/47/47
f 50/50/50 49/49/49 47/47/47
f 53/53/53 52/52/52 51/51/51
f 54/54/54 53/53/53 51/51/51
f 57/57/57 56/56/56 55/55/55
f 58/58/58 57/57/57 55/55/55
f 61/61/61 60/60/60 59/59/59
f 62/62/62 61/61/61 59/59/59
f 65/65/65 64/64/64 63/63/63
f 66/66/66 65/65/65 63/63/63
f 69/69/69 68/68/68 67/67/67
f 70/70/70 69/69/69 67/67/67
f 73/73/73 72/72/72 71/71/71
f 74/74/74 73/73/73 71/71/71
f 77/77/77 76/76/76 75/75/75
f 78/78/78 77/77/77 75/75/75
f 81/81/81 80/80/80 79/79/79
f 82/82/82 81/81/81 79/79/79
f 85/85/85 84/84/84 83/83/83
f 86/86/86 85/85/85 83/83/83
f 89/89/89 88/88/88 87/87/87
f 90/90/90 89/89/89 87/87/87
f 93/93/93 92/92/92 91/91/91
f 94/94/94 93/93/93 91/91/91
f 97/97/97 96/96/96 95/95/95
f 98/98/98 97/97/97 95/95/95
f 101/101/101 100/100/100 99/99/99
f 102/102/102 101/101/101 99/99/99
f 105/105/105 104/104/104 103/103/103
f 106/106/106 105/105/105 103/103/103
f 109/109/109 108/108/108 107/107/107
f 110/110/110 109/109/109 107/107/107
f 113/113/113 112/112/112 111/111/111
f 114/114/114 113/113/113 111/111/111
f 117/117/117 116/116/116 115/115/115
f 120/120/120 119/119/119 118/118/118
f 123/123/123 122/122/122 121/121/121
f 126/126/126 125/125/125 124/124/124
f 129/129/129 128/128/128 127/127/127
f 132/132/132 131/131/131 130/130/130
