g Tile_Single_E_Mesh
v -5 10 5
v 5 10 5
v 5 10 -5
v -5 10 -5
v -5 0 5
v -5 0 -5
v 5 0 -5
v 5 0 5
v -5 0 5
v -5 10 5
v -5 10 -5
v -5 0 -5
vt 0.4999999 -0.4999999
vt 1E-07 -0.4999999
vt 1E-07 -1E-07
vt 0.4999999 -1E-07
vt 0.4999999 0.4999999
vt 0.4999999 1E-07
vt 1E-07 1E-07
vt 1E-07 0.4999999
vt 0.5000001 0.5000001
vt 0.5000001 0.9999999
vt 0.9999999 0.9999999
vt 0.9999999 0.5000001
vn 0 -1 0
vn 0 -1 0
vn 0 -1 0
vn 0 -1 0
vn 0 1 0
vn 0 1 0
vn 0 1 0
vn 0 1 0
vn 1 0 0
vn 1 0 0
vn 1 0 0
vn 1 0 0
g Tile_Single_E_Mesh_0
f 3/3/3 2/2/2 1/1/1
f 4/4/4 3/3/3 1/1/1
f 7/7/7 6/6/6 5/5/5
f 8/8/8 7/7/7 5/5/5
f 11/11/11 10/10/10 9/9/9
f 12/12/12 11/11/11 9/9/9
