g Triangles
v 1.299038 0 -0.7499999
v -1.299038 0 -0.7499999
v 1.311342E-07 0 1.5
v -1.299038 0 -0.7499999
v 1.299038 0 -0.7499999
v -0.000841715 1.786314 0.0532482
v 1.311342E-07 0 1.5
v -1.299038 0 -0.7499999
v -0.000841715 1.786314 0.0532482
v 1.299038 0 -0.7499999
v 1.311342E-07 0 1.5
v -0.000841715 1.786314 0.0532482
vt 1.299038 0.7499999
vt -1.299038 0.7499999
vt 1.192093E-07 -1.5
vt 1.299038 0
vt -1.299038 0
vt 0.000841707 1.786314
vt 1.5 0
vt -0.75 0
vt 0.0532482 1.786314
vt 0.7499999 0
vt -1.5 0
vt -0.05324817 1.786314
vn 0 -1 0
vn 0 -1 0
vn 0 -1 0
vn 0 0.4101129 -0.9120348
vn 0 0.4101129 -0.9120348
vn 0 0.4101129 -0.9120348
vn -0.8028196 0.3750212 0.4635082
vn -0.8028196 0.3750212 0.4635082
vn -0.8028196 0.3750212 0.4635082
vn 0.8025917 0.3756711 0.4633765
vn 0.8025917 0.3756711 0.4633765
vn 0.8025917 0.3756711 0.4633765
g Triangles_0
f 3/3/3 2/2/2 1/1/1
f 6/6/6 5/5/5 4/4/4
f 9/9/9 8/8/8 7/7/7
f 12/12/12 11/11/11 10/10/10
