g Whirlpool_Buffer_Mesh
v -5 3 2.185569E-07
v -4.619398 3 -1.913417
v -3.535534 3 -3.535534
v -1.913417 3 -4.619398
v 0 3 -5
v 1.913417 3 -4.619398
v 3.535534 3 -3.535534
v 4.619398 3 -1.913417
v 5 3 2.185569E-07
v 4.619398 3 1.913418
v 3.535534 3 3.535534
v 1.913416 3 4.619398
v -4.371139E-07 3 5
v -1.913417 3 4.619398
v -3.535534 3 3.535533
v -4.619399 3 1.913416
vt 0.95 2.086163E-07
vt 0.9119397 -1.913417
vt 0.8035534 -3.535534
vt 0.6413417 -4.619398
vt 0.45 -5
vt 0.2586583 -4.619398
vt 0.0964466 -3.535534
vt -0.01193976 -1.913417
vt -0.05000001 2.086163E-07
vt -0.01193976 1.913418
vt 0.0964466 3.535534
vt 0.2586583 4.619398
vt 0.45 5
vt 0.6413417 4.619398
vt 0.8035535 3.535533
vt 0.9119399 1.913416
vn 0 1 0
vn 0 1 0
vn 0 1 0
vn 0 1 0
vn 0 1 0
vn 0 1 0
vn 0 1 0
vn 0 1 0
vn 0 1 0
vn 0 1 0
vn 0 1 0
vn 0 1 0
vn 0 1 0
vn 0 1 0
vn 0 1 0
vn 0 1 0
g Whirlpool_Buffer_Mesh_0
f 3/3/3 2/2/2 1/1/1
f 4/4/4 3/3/3 1/1/1
f 5/5/5 4/4/4 1/1/1
f 6/6/6 5/5/5 1/1/1
f 7/7/7 6/6/6 1/1/1
f 8/8/8 7/7/7 1/1/1
f 9/9/9 8/8/8 1/1/1
f 10/10/10 9/9/9 1/1/1
f 11/11/11 10/10/10 1/1/1
f 12/12/12 11/11/11 1/1/1
f 13/13/13 12/12/12 1/1/1
f 14/14/14 13/13/13 1/1/1
f 15/15/15 14/14/14 1/1/1
f 16/16/16 15/15/15 1/1/1
