g Whirlpool_Mesh
v 3.535534 0 3.535534
v 1.913416 0 4.619398
v 1.913416 3 4.619398
v 3.535534 3 3.535534
v 4.619398 0 1.913418
v 3.535534 0 3.535534
v 3.535534 3 3.535534
v 4.619398 3 1.913418
v 5 0 2.185569E-07
v 4.619398 0 1.913418
v 4.619398 3 1.913418
v 5 3 2.185569E-07
v 4.619398 0 -1.913417
v 5 0 2.185569E-07
v 5 3 2.185569E-07
v 4.619398 3 -1.913417
v 3.535534 0 -3.535534
v 4.619398 0 -1.913417
v 4.619398 3 -1.913417
v 3.535534 3 -3.535534
v 1.913417 0 -4.619398
v 3.535534 0 -3.535534
v 3.535534 3 -3.535534
v 1.913417 3 -4.619398
v 0 0 -5
v 1.913417 0 -4.619398
v 1.913417 3 -4.619398
v 0 3 -5
v -1.913417 0 -4.619398
v 0 0 -5
v 0 3 -5
v -1.913417 3 -4.619398
v -3.535534 0 -3.535534
v -1.913417 0 -4.619398
v -1.913417 3 -4.619398
v -3.535534 3 -3.535534
v -4.619398 0 -1.913417
v -3.535534 0 -3.535534
v -3.535534 3 -3.535534
v -4.619398 3 -1.913417
v -5 0 2.185569E-07
v -4.619398 0 -1.913417
v -4.619398 3 -1.913417
v -5 3 2.185569E-07
v -4.619398 0 1.913418
v -5 0 2.185569E-07
v -5 3 2.185569E-07
v -4.619398 3 1.913418
v -3.535534 0 3.535534
v -4.619398 0 1.913418
v -4.619398 3 1.913418
v -3.535534 3 3.535534
v -1.913416 0 4.619398
v -3.535534 0 3.535534
v -3.535534 3 3.535534
v -1.913416 3 4.619398
v 4.371139E-07 0 5
v -1.913416 0 4.619398
v -1.913416 3 4.619398
v 4.371139E-07 3 5
v 1.913416 0 4.619398
v 4.371139E-07 0 5
v 4.371139E-07 3 5
v 1.913416 3 4.619398
v 1.913416 0 4.619398
v 3.535534 0 3.535534
v 4.619398 0 1.913418
v 5 0 2.185569E-07
v 4.619398 0 -1.913417
v 3.535534 0 -3.535534
v 1.913417 0 -4.619398
v 0 0 -5
v -1.913417 0 -4.619398
v -3.535534 0 -3.535534
v -4.619398 0 -1.913417
v -5 0 2.185569E-07
v -4.619398 0 1.913418
v -3.535534 0 3.535534
v -1.913416 0 4.619398
v 4.371139E-07 0 5
v -3.535534 3 -3.535534
v 0 0 0
v -4.689426 3 -1.561362
v -3.535534 3 -3.535534
v -4.689426 3 -1.561362
v -4.619398 3 -1.913417
v 0 0 0
v -3.535534 3 -3.535534
v -1.913417 3 -4.619398
v 0 0 0
v -1.913417 3 -4.619398
v 0 3 -5
v 1.806286E-08 -1.513469E-07 -9.080814E-08
v -1.417956E-10 3 -5
v 1.913417 3 -4.619398
v 0 0 0
v 1.913417 3 -4.619398
v 3.535534 3 -3.535534
v 0 0 0
v 3.535534 3 -3.535534
v 4.619398 3 -1.913417
v 0 0 0
v 4.619398 3 -1.913417
v 5 3 2.185569E-07
v 0 0 0
v 5 3 2.185569E-07
v 4.619398 3 1.913418
v 0 0 0
v 4.619398 3 1.913418
v 3.535534 3 3.535534
v 0 0 0
v 3.535534 3 3.535534
v 1.913416 3 4.619398
v 0 0 0
v 1.913416 3 4.619398
v 4.371139E-07 3 5
v 0 0 0
v 4.371139E-07 3 5
v -1.913416 3 4.619398
v -5 3 2.185569E-07
v -4.689426 3 -1.561362
v 0 0 0
v 0 0 0
v -1.913416 3 4.619398
v -3.535534 3 3.535534
v -4.619398 3 1.913418
v -5 3 2.185569E-07
v 0 0 0
v 0 0 0
v -3.535534 3 3.535534
v -4.619398 3 1.913418
vt 0.8035534 0
vt 0.6413416 0
vt 0.6413416 3
vt 0.8035534 3
vt 0.2586582 0
vt 0.0964466 0
vt 0.0964466 3
vt 0.2586582 3
vt 0.45 0
vt 0.2586582 0
vt 0.2586582 3
vt 0.45 3
vt 0.6413417 0
vt 0.45 0
vt 0.45 3
vt 0.6413417 3
vt 0.8035534 0
vt 0.6413417 0
vt 0.6413417 3
vt 0.8035534 3
vt 0.2586583 0
vt 0.0964466 0
vt 0.0964466 3
vt 0.2586583 3
vt 0.45 0
vt 0.2586583 0
vt 0.2586583 3
vt 0.45 3
vt 0.6413417 0
vt 0.45 0
vt 0.45 3
vt 0.6413417 3
vt 0.8035534 0
vt 0.6413417 0
vt 0.6413417 3
vt 0.8035534 3
vt 0.2586583 0
vt 0.0964466 0
vt 0.0964466 3
vt 0.2586583 3
vt 0.45 0
vt 0.2586583 0
vt 0.2586583 3
vt 0.45 3
vt 0.6413417 0
vt 0.45 0
vt 0.45 3
vt 0.6413417 3
vt 0.8035534 0
vt 0.6413417 0
vt 0.6413417 3
vt 0.8035534 3
vt 0.2586583 0
vt 0.0964466 0
vt 0.0964466 3
vt 0.2586583 3
vt 0.45 0
vt 0.2586583 0
vt 0.2586583 3
vt 0.45 3
vt 0.6413416 0
vt 0.45 0
vt 0.45 3
vt 0.6413416 3
vt 0.6413416 -4.619398
vt 0.8035534 -3.535534
vt 0.9119397 -1.913418
vt 0.95 -2.384186E-07
vt 0.9119397 1.913417
vt 0.8035534 3.535534
vt 0.6413417 4.619398
vt 0.45 5
vt 0.2586583 4.619398
vt 0.0964466 3.535534
vt -0.01193976 1.913417
vt -0.05000001 -2.384186E-07
vt -0.01193976 -1.913418
vt 0.0964466 -3.535534
vt 0.2586583 -4.619398
vt 0.45 -5
vt 0.8555229 0.1563482
vt 0.5019695 0.5099016
vt 0.9709122 0.3537654
vt 0.8555229 0.1563482
vt 0.9709122 0.3537654
vt 0.9639093 0.3185599
vt 0.5019695 0.5099016
vt 0.8555229 0.1563482
vt 0.6933113 0.04796182
vt 0.5019695 0.5099016
vt 0.6933113 0.04796182
vt 0.5019695 0.009901576
vt 0.5019695 0.5099016
vt 0.5019695 0.009901576
vt 0.3106278 0.04796182
vt 0.5019695 0.5099016
vt 0.3106278 0.04796182
vt 0.1484161 0.1563482
vt 0.5019695 0.5099016
vt 0.1484161 0.1563482
vt 0.04002978 0.3185599
vt 0.5019695 0.5099016
vt 0.04002978 0.3185599
vt 0.001969561 0.5099016
vt 0.5019695 0.5099016
vt 0.001969561 0.5099016
vt 0.04002978 0.7012433
vt 0.5019695 0.5099016
vt 0.04002978 0.7012433
vt 0.1484161 0.8634549
vt 0.5019695 0.5099016
vt 0.1484161 0.8634549
vt 0.3106279 0.9718414
vt 0.5019695 0.5099016
vt 0.3106279 0.9718414
vt 0.5019695 1.009902
vt 0.5019695 0.5099016
vt 0.5019695 1.009902
vt 0.6933112 0.9718414
vt 1.00197 0.5099016
vt 0.9709122 0.3537654
vt 0.5019695 0.5099016
vt 0.5019695 0.5099016
vt 0.6933112 0.9718414
vt 0.8555229 0.8634549
vt 0.9639093 0.7012433
vt 1.00197 0.5099016
vt 0.5019695 0.5099016
vt 0.5019695 0.5099016
vt 0.8555229 0.8634549
vt 0.9639093 0.7012433
vn 0.5555702 0 0.8314697
vn 0.5555702 0 0.8314697
vn 0.5555702 0 0.8314697
vn 0.5555702 0 0.8314697
vn 0.8314696 0 0.5555704
vn 0.8314696 0 0.5555704
vn 0.8314696 0 0.5555704
vn 0.8314696 0 0.5555704
vn 0.9807853 0 0.1950903
vn 0.9807853 0 0.1950903
vn 0.9807853 0 0.1950903
vn 0.9807853 0 0.1950903
vn 0.9807853 0 -0.1950903
vn 0.9807853 0 -0.1950903
vn 0.9807853 0 -0.1950903
vn 0.9807853 0 -0.1950903
vn 0.8314697 0 -0.5555702
vn 0.8314697 0 -0.5555702
vn 0.8314697 0 -0.5555702
vn 0.8314697 0 -0.5555702
vn 0.5555702 0 -0.8314696
vn 0.5555702 0 -0.8314696
vn 0.5555702 0 -0.8314696
vn 0.5555702 0 -0.8314696
vn 0.1950903 0 -0.9807853
vn 0.1950903 0 -0.9807853
vn 0.1950903 0 -0.9807853
vn 0.1950903 0 -0.9807853
vn -0.1950903 0 -0.9807853
vn -0.1950903 0 -0.9807853
vn -0.1950903 0 -0.9807853
vn -0.1950903 0 -0.9807853
vn -0.5555702 0 -0.8314696
vn -0.5555702 0 -0.8314696
vn -0.5555702 0 -0.8314696
vn -0.5555702 0 -0.8314696
vn -0.8314697 0 -0.5555702
vn -0.8314697 0 -0.5555702
vn -0.8314697 0 -0.5555702
vn -0.8314697 0 -0.5555702
vn -0.9807853 0 -0.1950903
vn -0.9807853 0 -0.1950903
vn -0.9807853 0 -0.1950903
vn -0.9807853 0 -0.1950903
vn -0.9807853 0 0.1950903
vn -0.9807853 0 0.1950903
vn -0.9807853 0 0.1950903
vn -0.9807853 0 0.1950903
vn -0.8314696 0 0.5555704
vn -0.8314696 0 0.5555704
vn -0.8314696 0 0.5555704
vn -0.8314696 0 0.5555704
vn -0.5555702 0 0.8314697
vn -0.5555702 0 0.8314697
vn -0.5555702 0 0.8314697
vn -0.5555702 0 0.8314697
vn -0.1950901 0 0.9807853
vn -0.1950901 0 0.9807853
vn -0.1950901 0 0.9807853
vn -0.1950901 0 0.9807853
vn 0.1950902 0 0.9807853
vn 0.1950902 0 0.9807853
vn 0.1950902 0 0.9807853
vn 0.1950902 0 0.9807853
vn 0 -1 0
vn 0 -1 0
vn 0 -1 0
vn 0 -1 0
vn 0 -1 0
vn 0 -1 0
vn 0 -1 0
vn 0 -1 0
vn 0 -1 0
vn 0 -1 0
vn 0 -1 0
vn 0 -1 0
vn 0 -1 0
vn 0 -1 0
vn 0 -1 0
vn 0 -1 0
vn 0.4550813 0.8497936 0.2659924
vn 0.4550813 0.8497936 0.2659924
vn 0.4550813 0.8497936 0.2659924
vn 0 1 0
vn 0 1 0
vn 0 1 0
vn 0.2899242 0.8530375 0.4339021
vn 0.2899242 0.8530375 0.4339021
vn 0.2899242 0.8530375 0.4339021
vn 0.1018078 0.8530374 0.5118225
vn 0.1018078 0.8530374 0.5118225
vn 0.1018078 0.8530374 0.5118225
vn -0.1018078 0.8530375 0.5118225
vn -0.1018078 0.8530375 0.5118225
vn -0.1018078 0.8530375 0.5118225
vn -0.2899241 0.8530375 0.4339021
vn -0.2899241 0.8530375 0.4339021
vn -0.2899241 0.8530375 0.4339021
vn -0.4339022 0.8530374 0.2899241
vn -0.4339022 0.8530374 0.2899241
vn -0.4339022 0.8530374 0.2899241
vn -0.5118225 0.8530375 0.1018078
vn -0.5118225 0.8530375 0.1018078
vn -0.5118225 0.8530375 0.1018078
vn -0.5118225 0.8530375 -0.1018078
vn -0.5118225 0.8530375 -0.1018078
vn -0.5118225 0.8530375 -0.1018078
vn -0.4339021 0.8530375 -0.2899242
vn -0.4339021 0.8530375 -0.2899242
vn -0.4339021 0.8530375 -0.2899242
vn -0.2899241 0.8530375 -0.4339021
vn -0.2899241 0.8530375 -0.4339021
vn -0.2899241 0.8530375 -0.4339021
vn -0.1018078 0.8530374 -0.5118225
vn -0.1018078 0.8530374 -0.5118225
vn -0.1018078 0.8530374 -0.5118225
vn 0.1018078 0.8530375 -0.5118225
vn 0.1018078 0.8530375 -0.5118225
vn 0.1018078 0.8530375 -0.5118225
vn 0.5118225 0.8530375 0.1018078
vn 0.5118225 0.8530375 0.1018078
vn 0.5118225 0.8530375 0.1018078
vn 0.2899241 0.8530375 -0.4339022
vn 0.2899241 0.8530375 -0.4339022
vn 0.2899241 0.8530375 -0.4339022
vn 0.5118225 0.8530374 -0.1018078
vn 0.5118225 0.8530374 -0.1018078
vn 0.5118225 0.8530374 -0.1018078
vn 0.4339021 0.8530375 -0.2899242
vn 0.4339021 0.8530375 -0.2899242
vn 0.4339021 0.8530375 -0.2899242
g Whirlpool_Mesh_0
f 3/3/3 2/2/2 1/1/1
f 4/4/4 3/3/3 1/1/1
f 7/7/7 6/6/6 5/5/5
f 8/8/8 7/7/7 5/5/5
f 11/11/11 10/10/10 9/9/9
f 12/12/12 11/11/11 9/9/9
f 15/15/15 14/14/14 13/13/13
f 16/16/16 15/15/15 13/13/13
f 19/19/19 18/18/18 17/17/17
f 20/20/20 19/19/19 17/17/17
f 23/23/23 22/22/22 21/21/21
f 24/24/24 23/23/23 21/21/21
f 27/27/27 26/26/26 25/25/25
f 28/28/28 27/27/27 25/25/25
f 31/31/31 30/30/30 29/29/29
f 32/32/32 31/31/31 29/29/29
f 35/35/35 34/34/34 33/33/33
f 36/36/36 35/35/35 33/33/33
f 39/39/39 38/38/38 37/37/37
f 40/40/40 39/39/39 37/37/37
f 43/43/43 42/42/42 41/41/41
f 44/44/44 43/43/43 41/41/41
f 47/47/47 46/46/46 45/45/45
f 48/48/48 47/47/47 45/45/45
f 51/51/51 50/50/50 49/49/49
f 52/52/52 51/51/51 49/49/49
f 55/55/55 54/54/54 53/53/53
f 56/56/56 55/55/55 53/53/53
f 59/59/59 58/58/58 57/57/57
f 60/60/60 59/59/59 57/57/57
f 63/63/63 62/62/62 61/61/61
f 64/64/64 63/63/63 61/61/61
f 67/67/67 66/66/66 65/65/65
f 68/68/68 67/67/67 65/65/65
f 69/69/69 68/68/68 65/65/65
f 70/70/70 69/69/69 65/65/65
f 71/71/71 70/70/70 65/65/65
f 72/72/72 71/71/71 65/65/65
f 73/73/73 72/72/72 65/65/65
f 74/74/74 73/73/73 65/65/65
f 75/75/75 74/74/74 65/65/65
f 76/76/76 75/75/75 65/65/65
f 77/77/77 76/76/76 65/65/65
f 78/78/78 77/77/77 65/65/65
f 79/79/79 78/78/78 65/65/65
f 80/80/80 79/79/79 65/65/65
f 83/83/83 82/82/82 81/81/81
f 86/86/86 85/85/85 84/84/84
f 89/89/89 88/88/88 87/87/87
f 92/92/92 91/91/91 90/90/90
f 95/95/95 94/94/94 93/93/93
f 98/98/98 97/97/97 96/96/96
f 101/101/101 100/100/100 99/99/99
f 104/104/104 103/103/103 102/102/102
f 107/107/107 106/106/106 105/105/105
f 110/110/110 109/109/109 108/108/108
f 113/113/113 112/112/112 111/111/111
f 116/116/116 115/115/115 114/114/114
f 119/119/119 118/118/118 117/117/117
f 122/122/122 121/121/121 120/120/120
f 125/125/125 124/124/124 123/123/123
f 128/128/128 127/127/127 126/126/126
f 131/131/131 130/130/130 129/129/129
